<svg width="423" height="116" viewBox="0 0 423 116" fill="none" xmlns="http://www.w3.org/2000/svg">
<path d="M52 67L99.6233 30.6086C103.111 27.9437 107.378 26.5 111.767 26.5H193" stroke="black"/>
<path d="M52 67L99.6233 30.6086C103.111 27.9437 107.378 26.5 111.767 26.5H193" stroke="url(#paint0_linear_6_5)"/>
<path d="M262.181 17L258.405 5.8H259.621L263.157 16.344H262.549L266.197 5.8H267.285L270.885 16.344H270.309L273.877 5.8H275.013L271.237 17H269.989L266.549 7H266.869L263.413 17H262.181ZM281.466 8.52C282.148 8.52 282.746 8.65333 283.258 8.92C283.78 9.176 284.186 9.57067 284.474 10.104C284.772 10.6373 284.922 11.3093 284.922 12.12V17H283.786V12.232C283.786 11.3467 283.562 10.68 283.114 10.232C282.676 9.77333 282.058 9.544 281.258 9.544C280.66 9.544 280.138 9.66667 279.69 9.912C279.252 10.1467 278.911 10.4933 278.666 10.952C278.431 11.4 278.314 11.944 278.314 12.584V17H277.178V5.128H278.314V10.904L278.09 10.472C278.356 9.864 278.783 9.38933 279.37 9.048C279.956 8.696 280.655 8.52 281.466 8.52ZM291.558 17.08C290.684 17.08 289.916 16.8987 289.254 16.536C288.593 16.1627 288.076 15.656 287.702 15.016C287.329 14.3653 287.142 13.624 287.142 12.792C287.142 11.96 287.318 11.224 287.67 10.584C288.033 9.944 288.524 9.44267 289.142 9.08C289.772 8.70667 290.476 8.52 291.254 8.52C292.044 8.52 292.742 8.70133 293.35 9.064C293.969 9.416 294.454 9.91733 294.806 10.568C295.158 11.208 295.334 11.9493 295.334 12.792C295.334 12.8453 295.329 12.904 295.318 12.968C295.318 13.0213 295.318 13.08 295.318 13.144H288.006V12.296H294.71L294.262 12.632C294.262 12.024 294.129 11.4853 293.862 11.016C293.606 10.536 293.254 10.1627 292.806 9.896C292.358 9.62933 291.841 9.496 291.254 9.496C290.678 9.496 290.161 9.62933 289.702 9.896C289.244 10.1627 288.886 10.536 288.63 11.016C288.374 11.496 288.246 12.0453 288.246 12.664V12.84C288.246 13.48 288.385 14.0453 288.662 14.536C288.95 15.016 289.345 15.3947 289.846 15.672C290.358 15.9387 290.94 16.072 291.59 16.072C292.102 16.072 292.577 15.9813 293.014 15.8C293.462 15.6187 293.846 15.3413 294.166 14.968L294.806 15.704C294.433 16.152 293.964 16.4933 293.398 16.728C292.844 16.9627 292.23 17.08 291.558 17.08ZM301.935 8.52C302.617 8.52 303.215 8.65333 303.727 8.92C304.249 9.176 304.655 9.57067 304.943 10.104C305.241 10.6373 305.391 11.3093 305.391 12.12V17H304.255V12.232C304.255 11.3467 304.031 10.68 303.583 10.232C303.145 9.77333 302.527 9.544 301.727 9.544C301.129 9.544 300.607 9.66667 300.159 9.912C299.721 10.1467 299.38 10.4933 299.135 10.952C298.9 11.4 298.783 11.944 298.783 12.584V17H297.647V8.6H298.735V10.904L298.559 10.472C298.825 9.864 299.252 9.38933 299.839 9.048C300.425 8.696 301.124 8.52 301.935 8.52ZM316.071 17.08C315.26 17.08 314.529 16.8987 313.879 16.536C313.239 16.1627 312.732 15.656 312.359 15.016C311.985 14.3653 311.799 13.624 311.799 12.792C311.799 11.9493 311.985 11.208 312.359 10.568C312.732 9.928 313.239 9.42667 313.879 9.064C314.519 8.70133 315.249 8.52 316.071 8.52C316.903 8.52 317.639 8.70133 318.279 9.064C318.929 9.42667 319.436 9.928 319.799 10.568C320.172 11.208 320.359 11.9493 320.359 12.792C320.359 13.624 320.172 14.3653 319.799 15.016C319.436 15.656 318.929 16.1627 318.279 16.536C317.628 16.8987 316.892 17.08 316.071 17.08ZM316.071 16.072C316.679 16.072 317.217 15.9387 317.687 15.672C318.156 15.3947 318.524 15.0107 318.791 14.52C319.068 14.0187 319.207 13.4427 319.207 12.792C319.207 12.1307 319.068 11.5547 318.791 11.064C318.524 10.5733 318.156 10.1947 317.687 9.928C317.217 9.65067 316.684 9.512 316.087 9.512C315.489 9.512 314.956 9.65067 314.487 9.928C314.017 10.1947 313.644 10.5733 313.367 11.064C313.089 11.5547 312.951 12.1307 312.951 12.792C312.951 13.4427 313.089 14.0187 313.367 14.52C313.644 15.0107 314.017 15.3947 314.487 15.672C314.956 15.9387 315.484 16.072 316.071 16.072ZM322.678 17V8.6H323.766V10.888L323.654 10.488C323.888 9.848 324.283 9.36267 324.838 9.032C325.392 8.69067 326.08 8.52 326.902 8.52V9.624C326.859 9.624 326.816 9.624 326.774 9.624C326.731 9.61333 326.688 9.608 326.646 9.608C325.76 9.608 325.067 9.88 324.566 10.424C324.064 10.9573 323.814 11.72 323.814 12.712V17H322.678ZM332.241 17.08C331.441 17.08 330.721 16.8987 330.081 16.536C329.451 16.1733 328.955 15.672 328.593 15.032C328.23 14.3813 328.049 13.6347 328.049 12.792C328.049 11.9387 328.23 11.192 328.593 10.552C328.955 9.912 329.451 9.416 330.081 9.064C330.721 8.70133 331.441 8.52 332.241 8.52C332.977 8.52 333.633 8.68533 334.209 9.016C334.795 9.34667 335.259 9.832 335.601 10.472C335.953 11.1013 336.128 11.8747 336.128 12.792C336.128 13.6987 335.958 14.472 335.617 15.112C335.275 15.752 334.811 16.2427 334.225 16.584C333.649 16.9147 332.987 17.08 332.241 17.08ZM332.321 16.072C332.918 16.072 333.451 15.9387 333.921 15.672C334.401 15.3947 334.774 15.0107 335.041 14.52C335.318 14.0187 335.457 13.4427 335.457 12.792C335.457 12.1307 335.318 11.5547 335.041 11.064C334.774 10.5733 334.401 10.1947 333.921 9.928C333.451 9.65067 332.918 9.512 332.321 9.512C331.734 9.512 331.206 9.65067 330.737 9.928C330.267 10.1947 329.894 10.5733 329.617 11.064C329.339 11.5547 329.201 12.1307 329.201 12.792C329.201 13.4427 329.339 14.0187 329.617 14.52C329.894 15.0107 330.267 15.3947 330.737 15.672C331.206 15.9387 331.734 16.072 332.321 16.072ZM335.489 17V14.472L335.601 12.776L335.441 11.08V5.128H336.577V17H335.489ZM343.308 17.08C342.434 17.08 341.666 16.8987 341.004 16.536C340.343 16.1627 339.826 15.656 339.452 15.016C339.079 14.3653 338.892 13.624 338.892 12.792C338.892 11.96 339.068 11.224 339.42 10.584C339.783 9.944 340.274 9.44267 340.892 9.08C341.522 8.70667 342.226 8.52 343.004 8.52C343.794 8.52 344.492 8.70133 345.1 9.064C345.719 9.416 346.204 9.91733 346.556 10.568C346.908 11.208 347.084 11.9493 347.084 12.792C347.084 12.8453 347.079 12.904 347.068 12.968C347.068 13.0213 347.068 13.08 347.068 13.144H339.756V12.296H346.46L346.012 12.632C346.012 12.024 345.879 11.4853 345.612 11.016C345.356 10.536 345.004 10.1627 344.556 9.896C344.108 9.62933 343.591 9.496 343.004 9.496C342.428 9.496 341.911 9.62933 341.452 9.896C340.994 10.1627 340.636 10.536 340.38 11.016C340.124 11.496 339.996 12.0453 339.996 12.664V12.84C339.996 13.48 340.135 14.0453 340.412 14.536C340.7 15.016 341.095 15.3947 341.596 15.672C342.108 15.9387 342.69 16.072 343.34 16.072C343.852 16.072 344.327 15.9813 344.764 15.8C345.212 15.6187 345.596 15.3413 345.916 14.968L346.556 15.704C346.183 16.152 345.714 16.4933 345.148 16.728C344.594 16.9627 343.98 17.08 343.308 17.08ZM349.397 17V8.6H350.485V10.888L350.373 10.488C350.607 9.848 351.002 9.36267 351.557 9.032C352.111 8.69067 352.799 8.52 353.621 8.52V9.624C353.578 9.624 353.535 9.624 353.493 9.624C353.45 9.61333 353.407 9.608 353.365 9.608C352.479 9.608 351.786 9.88 351.285 10.424C350.783 10.9573 350.533 11.72 350.533 12.712V17H349.397ZM355.693 17V8.6H356.829V17H355.693ZM356.269 6.744C356.035 6.744 355.837 6.664 355.677 6.504C355.517 6.344 355.437 6.152 355.437 5.928C355.437 5.704 355.517 5.51733 355.677 5.368C355.837 5.208 356.035 5.128 356.269 5.128C356.504 5.128 356.701 5.20267 356.861 5.352C357.021 5.50133 357.101 5.688 357.101 5.912C357.101 6.14667 357.021 6.344 356.861 6.504C356.712 6.664 356.515 6.744 356.269 6.744ZM364.278 8.52C364.961 8.52 365.558 8.65333 366.07 8.92C366.593 9.176 366.998 9.57067 367.286 10.104C367.585 10.6373 367.734 11.3093 367.734 12.12V17H366.598V12.232C366.598 11.3467 366.374 10.68 365.926 10.232C365.489 9.77333 364.87 9.544 364.07 9.544C363.473 9.544 362.95 9.66667 362.502 9.912C362.065 10.1467 361.724 10.4933 361.478 10.952C361.244 11.4 361.126 11.944 361.126 12.584V17H359.99V8.6H361.078V10.904L360.902 10.472C361.169 9.864 361.596 9.38933 362.182 9.048C362.769 8.696 363.468 8.52 364.278 8.52ZM374.387 20.184C373.619 20.184 372.883 20.072 372.179 19.848C371.475 19.624 370.904 19.304 370.467 18.888L371.043 18.024C371.437 18.376 371.923 18.6533 372.499 18.856C373.085 19.0693 373.704 19.176 374.355 19.176C375.421 19.176 376.205 18.9253 376.707 18.424C377.208 17.9333 377.459 17.1653 377.459 16.12V14.024L377.619 12.584L377.507 11.144V8.6H378.595V15.976C378.595 17.4267 378.237 18.488 377.523 19.16C376.819 19.8427 375.773 20.184 374.387 20.184ZM374.179 16.68C373.379 16.68 372.659 16.5093 372.019 16.168C371.379 15.816 370.872 15.3307 370.499 14.712C370.136 14.0933 369.955 13.384 369.955 12.584C369.955 11.784 370.136 11.08 370.499 10.472C370.872 9.85333 371.379 9.37333 372.019 9.032C372.659 8.69067 373.379 8.52 374.179 8.52C374.925 8.52 375.597 8.67467 376.195 8.984C376.792 9.29333 377.267 9.752 377.619 10.36C377.971 10.968 378.147 11.7093 378.147 12.584C378.147 13.4587 377.971 14.2 377.619 14.808C377.267 15.416 376.792 15.88 376.195 16.2C375.597 16.52 374.925 16.68 374.179 16.68ZM374.291 15.672C374.909 15.672 375.459 15.544 375.939 15.288C376.419 15.0213 376.797 14.6587 377.075 14.2C377.352 13.7307 377.491 13.192 377.491 12.584C377.491 11.976 377.352 11.4427 377.075 10.984C376.797 10.5253 376.419 10.168 375.939 9.912C375.459 9.64533 374.909 9.512 374.291 9.512C373.683 9.512 373.133 9.64533 372.643 9.912C372.163 10.168 371.784 10.5253 371.507 10.984C371.24 11.4427 371.107 11.976 371.107 12.584C371.107 13.192 371.24 13.7307 371.507 14.2C371.784 14.6587 372.163 15.0213 372.643 15.288C373.133 15.544 373.683 15.672 374.291 15.672ZM386.135 17V7.544C386.135 6.79733 386.354 6.19467 386.791 5.736C387.229 5.27733 387.858 5.048 388.679 5.048C388.999 5.048 389.309 5.09067 389.607 5.176C389.906 5.26133 390.157 5.39467 390.359 5.576L389.975 6.424C389.815 6.28533 389.629 6.184 389.415 6.12C389.202 6.04533 388.973 6.008 388.727 6.008C388.247 6.008 387.879 6.14133 387.623 6.408C387.367 6.67467 387.239 7.06933 387.239 7.592V8.872L387.271 9.4V17H386.135ZM384.631 9.544V8.6H389.831V9.544H384.631ZM391.365 17V8.6H392.453V10.888L392.341 10.488C392.576 9.848 392.971 9.36267 393.525 9.032C394.08 8.69067 394.768 8.52 395.589 8.52V9.624C395.547 9.624 395.504 9.624 395.461 9.624C395.419 9.61333 395.376 9.608 395.333 9.608C394.448 9.608 393.755 9.88 393.253 10.424C392.752 10.9573 392.501 11.72 392.501 12.712V17H391.365ZM401.008 17.08C400.197 17.08 399.467 16.8987 398.816 16.536C398.176 16.1627 397.669 15.656 397.296 15.016C396.923 14.3653 396.736 13.624 396.736 12.792C396.736 11.9493 396.923 11.208 397.296 10.568C397.669 9.928 398.176 9.42667 398.816 9.064C399.456 8.70133 400.187 8.52 401.008 8.52C401.84 8.52 402.576 8.70133 403.216 9.064C403.867 9.42667 404.373 9.928 404.736 10.568C405.109 11.208 405.296 11.9493 405.296 12.792C405.296 13.624 405.109 14.3653 404.736 15.016C404.373 15.656 403.867 16.1627 403.216 16.536C402.565 16.8987 401.829 17.08 401.008 17.08ZM401.008 16.072C401.616 16.072 402.155 15.9387 402.624 15.672C403.093 15.3947 403.461 15.0107 403.728 14.52C404.005 14.0187 404.144 13.4427 404.144 12.792C404.144 12.1307 404.005 11.5547 403.728 11.064C403.461 10.5733 403.093 10.1947 402.624 9.928C402.155 9.65067 401.621 9.512 401.024 9.512C400.427 9.512 399.893 9.65067 399.424 9.928C398.955 10.1947 398.581 10.5733 398.304 11.064C398.027 11.5547 397.888 12.1307 397.888 12.792C397.888 13.4427 398.027 14.0187 398.304 14.52C398.581 15.0107 398.955 15.3947 399.424 15.672C399.893 15.9387 400.421 16.072 401.008 16.072ZM418.111 8.52C418.794 8.52 419.386 8.65333 419.887 8.92C420.399 9.176 420.794 9.57067 421.071 10.104C421.359 10.6373 421.503 11.3093 421.503 12.12V17H420.367V12.232C420.367 11.3467 420.154 10.68 419.727 10.232C419.311 9.77333 418.719 9.544 417.951 9.544C417.375 9.544 416.874 9.66667 416.447 9.912C416.031 10.1467 415.706 10.4933 415.471 10.952C415.247 11.4 415.135 11.944 415.135 12.584V17H413.999V12.232C413.999 11.3467 413.786 10.68 413.359 10.232C412.933 9.77333 412.335 9.544 411.567 9.544C411.002 9.544 410.506 9.66667 410.079 9.912C409.653 10.1467 409.322 10.4933 409.087 10.952C408.863 11.4 408.751 11.944 408.751 12.584V17H407.615V8.6H408.703V10.872L408.527 10.472C408.783 9.864 409.194 9.38933 409.759 9.048C410.335 8.696 411.013 8.52 411.791 8.52C412.613 8.52 413.311 8.728 413.887 9.144C414.463 9.54933 414.837 10.1627 415.007 10.984L414.559 10.808C414.805 10.1253 415.237 9.576 415.855 9.16C416.485 8.73333 417.237 8.52 418.111 8.52ZM302.365 41.336L303.069 38.376L303.197 39.064C302.951 39.064 302.743 38.984 302.573 38.824C302.413 38.664 302.333 38.456 302.333 38.2C302.333 37.944 302.413 37.736 302.573 37.576C302.743 37.416 302.946 37.336 303.181 37.336C303.426 37.336 303.623 37.4213 303.773 37.592C303.933 37.7627 304.013 37.9653 304.013 38.2C304.013 38.2853 304.007 38.3707 303.997 38.456C303.986 38.5413 303.965 38.6373 303.933 38.744C303.901 38.8507 303.858 38.9787 303.805 39.128L303.133 41.336H302.365ZM313.975 39.08C313.175 39.08 312.455 38.8987 311.815 38.536C311.186 38.1733 310.69 37.672 310.327 37.032C309.964 36.3813 309.783 35.6347 309.783 34.792C309.783 33.9387 309.964 33.192 310.327 32.552C310.69 31.912 311.186 31.416 311.815 31.064C312.455 30.7013 313.175 30.52 313.975 30.52C314.711 30.52 315.367 30.6853 315.943 31.016C316.53 31.3467 316.994 31.832 317.335 32.472C317.687 33.1013 317.863 33.8747 317.863 34.792C317.863 35.6987 317.692 36.472 317.351 37.112C317.01 37.752 316.546 38.2427 315.959 38.584C315.383 38.9147 314.722 39.08 313.975 39.08ZM314.055 38.072C314.652 38.072 315.186 37.9387 315.655 37.672C316.135 37.3947 316.508 37.0107 316.775 36.52C317.052 36.0187 317.191 35.4427 317.191 34.792C317.191 34.1307 317.052 33.5547 316.775 33.064C316.508 32.5733 316.135 32.1947 315.655 31.928C315.186 31.6507 314.652 31.512 314.055 31.512C313.468 31.512 312.94 31.6507 312.471 31.928C312.002 32.1947 311.628 32.5733 311.351 33.064C311.074 33.5547 310.935 34.1307 310.935 34.792C310.935 35.4427 311.074 36.0187 311.351 36.52C311.628 37.0107 312.002 37.3947 312.471 37.672C312.94 37.9387 313.468 38.072 314.055 38.072ZM317.223 39V36.472L317.335 34.776L317.175 33.08V27.128H318.311V39H317.223ZM325.043 39.08C324.168 39.08 323.4 38.8987 322.739 38.536C322.077 38.1627 321.56 37.656 321.187 37.016C320.813 36.3653 320.627 35.624 320.627 34.792C320.627 33.96 320.803 33.224 321.155 32.584C321.517 31.944 322.008 31.4427 322.627 31.08C323.256 30.7067 323.96 30.52 324.739 30.52C325.528 30.52 326.227 30.7013 326.835 31.064C327.453 31.416 327.939 31.9173 328.291 32.568C328.643 33.208 328.819 33.9493 328.819 34.792C328.819 34.8453 328.813 34.904 328.803 34.968C328.803 35.0213 328.803 35.08 328.803 35.144H321.491V34.296H328.195L327.747 34.632C327.747 34.024 327.613 33.4853 327.347 33.016C327.091 32.536 326.739 32.1627 326.291 31.896C325.843 31.6293 325.325 31.496 324.739 31.496C324.163 31.496 323.645 31.6293 323.187 31.896C322.728 32.1627 322.371 32.536 322.115 33.016C321.859 33.496 321.731 34.0453 321.731 34.664V34.84C321.731 35.48 321.869 36.0453 322.147 36.536C322.435 37.016 322.829 37.3947 323.331 37.672C323.843 37.9387 324.424 38.072 325.075 38.072C325.587 38.072 326.061 37.9813 326.499 37.8C326.947 37.6187 327.331 37.3413 327.651 36.968L328.291 37.704C327.917 38.152 327.448 38.4933 326.883 38.728C326.328 38.9627 325.715 39.08 325.043 39.08ZM331.131 39V27.128H332.267V39H331.131ZM335.428 39V30.6H336.564V39H335.428ZM336.004 28.744C335.769 28.744 335.572 28.664 335.412 28.504C335.252 28.344 335.172 28.152 335.172 27.928C335.172 27.704 335.252 27.5173 335.412 27.368C335.572 27.208 335.769 27.128 336.004 27.128C336.238 27.128 336.436 27.2027 336.596 27.352C336.756 27.5013 336.836 27.688 336.836 27.912C336.836 28.1467 336.756 28.344 336.596 28.504C336.446 28.664 336.249 28.744 336.004 28.744ZM341.885 39L338.157 30.6H339.341L342.765 38.392H342.205L345.677 30.6H346.797L343.053 39H341.885ZM351.73 39.08C350.855 39.08 350.087 38.8987 349.426 38.536C348.765 38.1627 348.247 37.656 347.874 37.016C347.501 36.3653 347.314 35.624 347.314 34.792C347.314 33.96 347.49 33.224 347.842 32.584C348.205 31.944 348.695 31.4427 349.314 31.08C349.943 30.7067 350.647 30.52 351.426 30.52C352.215 30.52 352.914 30.7013 353.522 31.064C354.141 31.416 354.626 31.9173 354.978 32.568C355.33 33.208 355.506 33.9493 355.506 34.792C355.506 34.8453 355.501 34.904 355.49 34.968C355.49 35.0213 355.49 35.08 355.49 35.144H348.178V34.296H354.882L354.434 34.632C354.434 34.024 354.301 33.4853 354.034 33.016C353.778 32.536 353.426 32.1627 352.978 31.896C352.53 31.6293 352.013 31.496 351.426 31.496C350.85 31.496 350.333 31.6293 349.874 31.896C349.415 32.1627 349.058 32.536 348.802 33.016C348.546 33.496 348.418 34.0453 348.418 34.664V34.84C348.418 35.48 348.557 36.0453 348.834 36.536C349.122 37.016 349.517 37.3947 350.018 37.672C350.53 37.9387 351.111 38.072 351.762 38.072C352.274 38.072 352.749 37.9813 353.186 37.8C353.634 37.6187 354.018 37.3413 354.338 36.968L354.978 37.704C354.605 38.152 354.135 38.4933 353.57 38.728C353.015 38.9627 352.402 39.08 351.73 39.08ZM357.818 39V30.6H358.906V32.888L358.794 32.488C359.029 31.848 359.424 31.3627 359.978 31.032C360.533 30.6907 361.221 30.52 362.042 30.52V31.624C362 31.624 361.957 31.624 361.914 31.624C361.872 31.6133 361.829 31.608 361.786 31.608C360.901 31.608 360.208 31.88 359.706 32.424C359.205 32.9573 358.954 33.72 358.954 34.712V39H357.818ZM364.539 42.184C364.144 42.184 363.765 42.12 363.403 41.992C363.051 41.864 362.747 41.672 362.491 41.416L363.019 40.568C363.232 40.7707 363.461 40.9253 363.707 41.032C363.963 41.1493 364.245 41.208 364.555 41.208C364.928 41.208 365.248 41.1013 365.515 40.888C365.792 40.6853 366.053 40.3227 366.299 39.8L366.843 38.568L366.971 38.392L370.427 30.6H371.547L367.339 40.008C367.104 40.552 366.843 40.984 366.555 41.304C366.277 41.624 365.973 41.848 365.643 41.976C365.312 42.1147 364.944 42.184 364.539 42.184ZM366.779 39.24L362.907 30.6H364.091L367.515 38.312L366.779 39.24ZM377.334 39V30.6H378.47V39H377.334ZM377.91 28.744C377.675 28.744 377.478 28.664 377.318 28.504C377.158 28.344 377.078 28.152 377.078 27.928C377.078 27.704 377.158 27.5173 377.318 27.368C377.478 27.208 377.675 27.128 377.91 27.128C378.145 27.128 378.342 27.2027 378.502 27.352C378.662 27.5013 378.742 27.688 378.742 27.912C378.742 28.1467 378.662 28.344 378.502 28.504C378.353 28.664 378.155 28.744 377.91 28.744ZM383.887 39.08C383.194 39.08 382.538 38.984 381.919 38.792C381.3 38.5893 380.815 38.3387 380.463 38.04L380.975 37.144C381.316 37.4 381.754 37.624 382.287 37.816C382.82 37.9973 383.38 38.088 383.967 38.088C384.767 38.088 385.343 37.9653 385.695 37.72C386.047 37.464 386.223 37.128 386.223 36.712C386.223 36.4027 386.122 36.1627 385.919 35.992C385.727 35.8107 385.471 35.6773 385.151 35.592C384.831 35.496 384.474 35.416 384.079 35.352C383.684 35.288 383.29 35.2133 382.895 35.128C382.511 35.0427 382.159 34.92 381.839 34.76C381.519 34.5893 381.258 34.36 381.055 34.072C380.863 33.784 380.767 33.4 380.767 32.92C380.767 32.4613 380.895 32.0507 381.151 31.688C381.407 31.3253 381.78 31.0427 382.271 30.84C382.772 30.6267 383.38 30.52 384.095 30.52C384.639 30.52 385.183 30.5947 385.727 30.744C386.271 30.8827 386.719 31.0693 387.071 31.304L386.575 32.216C386.202 31.96 385.802 31.7787 385.375 31.672C384.948 31.5547 384.522 31.496 384.095 31.496C383.338 31.496 382.778 31.6293 382.415 31.896C382.063 32.152 381.887 32.4827 381.887 32.888C381.887 33.208 381.983 33.4587 382.175 33.64C382.378 33.8213 382.639 33.9653 382.959 34.072C383.29 34.168 383.647 34.248 384.031 34.312C384.426 34.376 384.815 34.456 385.199 34.552C385.594 34.6373 385.951 34.76 386.271 34.92C386.602 35.0693 386.863 35.288 387.055 35.576C387.258 35.8533 387.359 36.2213 387.359 36.68C387.359 37.1707 387.22 37.5973 386.943 37.96C386.676 38.312 386.282 38.5893 385.759 38.792C385.247 38.984 384.623 39.08 383.887 39.08ZM393.823 39V29.544C393.823 28.7973 394.042 28.1947 394.479 27.736C394.916 27.2773 395.546 27.048 396.367 27.048C396.687 27.048 396.996 27.0907 397.295 27.176C397.594 27.2613 397.844 27.3947 398.047 27.576L397.663 28.424C397.503 28.2853 397.316 28.184 397.103 28.12C396.89 28.0453 396.66 28.008 396.415 28.008C395.935 28.008 395.567 28.1413 395.311 28.408C395.055 28.6747 394.927 29.0693 394.927 29.592V30.872L394.959 31.4V39H393.823ZM392.319 31.544V30.6H397.519V31.544H392.319ZM399.053 39V30.6H400.141V32.888L400.029 32.488C400.263 31.848 400.658 31.3627 401.213 31.032C401.767 30.6907 402.455 30.52 403.277 30.52V31.624C403.234 31.624 403.191 31.624 403.149 31.624C403.106 31.6133 403.063 31.608 403.021 31.608C402.135 31.608 401.442 31.88 400.941 32.424C400.439 32.9573 400.189 33.72 400.189 34.712V39H399.053ZM408.84 39.08C407.965 39.08 407.197 38.8987 406.536 38.536C405.874 38.1627 405.357 37.656 404.984 37.016C404.61 36.3653 404.424 35.624 404.424 34.792C404.424 33.96 404.6 33.224 404.952 32.584C405.314 31.944 405.805 31.4427 406.424 31.08C407.053 30.7067 407.757 30.52 408.536 30.52C409.325 30.52 410.024 30.7013 410.632 31.064C411.25 31.416 411.736 31.9173 412.088 32.568C412.44 33.208 412.616 33.9493 412.616 34.792C412.616 34.8453 412.61 34.904 412.6 34.968C412.6 35.0213 412.6 35.08 412.6 35.144H405.288V34.296H411.992L411.544 34.632C411.544 34.024 411.41 33.4853 411.144 33.016C410.888 32.536 410.536 32.1627 410.088 31.896C409.64 31.6293 409.122 31.496 408.536 31.496C407.96 31.496 407.442 31.6293 406.984 31.896C406.525 32.1627 406.168 32.536 405.912 33.016C405.656 33.496 405.528 34.0453 405.528 34.664V34.84C405.528 35.48 405.666 36.0453 405.944 36.536C406.232 37.016 406.626 37.3947 407.128 37.672C407.64 37.9387 408.221 38.072 408.872 38.072C409.384 38.072 409.858 37.9813 410.296 37.8C410.744 37.6187 411.128 37.3413 411.448 36.968L412.088 37.704C411.714 38.152 411.245 38.4933 410.68 38.728C410.125 38.9627 409.512 39.08 408.84 39.08ZM418.496 39.08C417.621 39.08 416.853 38.8987 416.192 38.536C415.53 38.1627 415.013 37.656 414.64 37.016C414.266 36.3653 414.08 35.624 414.08 34.792C414.08 33.96 414.256 33.224 414.608 32.584C414.97 31.944 415.461 31.4427 416.08 31.08C416.709 30.7067 417.413 30.52 418.192 30.52C418.981 30.52 419.68 30.7013 420.288 31.064C420.906 31.416 421.392 31.9173 421.744 32.568C422.096 33.208 422.272 33.9493 422.272 34.792C422.272 34.8453 422.266 34.904 422.256 34.968C422.256 35.0213 422.256 35.08 422.256 35.144H414.944V34.296H421.648L421.2 34.632C421.2 34.024 421.066 33.4853 420.8 33.016C420.544 32.536 420.192 32.1627 419.744 31.896C419.296 31.6293 418.778 31.496 418.192 31.496C417.616 31.496 417.098 31.6293 416.64 31.896C416.181 32.1627 415.824 32.536 415.568 33.016C415.312 33.496 415.184 34.0453 415.184 34.664V34.84C415.184 35.48 415.322 36.0453 415.6 36.536C415.888 37.016 416.282 37.3947 416.784 37.672C417.296 37.9387 417.877 38.072 418.528 38.072C419.04 38.072 419.514 37.9813 419.952 37.8C420.4 37.6187 420.784 37.3413 421.104 36.968L421.744 37.704C421.37 38.152 420.901 38.4933 420.336 38.728C419.781 38.9627 419.168 39.08 418.496 39.08Z" fill="black"/>
<path d="M230.479 39L234.991 28.792L235.663 29.912H229.631L230.783 28.696V31.736H228.479V27.8H237.455V29.48L233.295 39H230.479ZM243.096 39.192C242.179 39.192 241.357 38.968 240.632 38.52C239.907 38.0613 239.336 37.4 238.92 36.536C238.504 35.672 238.296 34.6267 238.296 33.4C238.296 32.1733 238.504 31.128 238.92 30.264C239.336 29.4 239.907 28.744 240.632 28.296C241.357 27.8373 242.179 27.608 243.096 27.608C244.024 27.608 244.845 27.8373 245.56 28.296C246.285 28.744 246.856 29.4 247.272 30.264C247.688 31.128 247.896 32.1733 247.896 33.4C247.896 34.6267 247.688 35.672 247.272 36.536C246.856 37.4 246.285 38.0613 245.56 38.52C244.845 38.968 244.024 39.192 243.096 39.192ZM243.096 37C243.533 37 243.912 36.8773 244.232 36.632C244.563 36.3867 244.819 35.9973 245 35.464C245.192 34.9307 245.288 34.2427 245.288 33.4C245.288 32.5573 245.192 31.8693 245 31.336C244.819 30.8027 244.563 30.4133 244.232 30.168C243.912 29.9227 243.533 29.8 243.096 29.8C242.669 29.8 242.291 29.9227 241.96 30.168C241.64 30.4133 241.384 30.8027 241.192 31.336C241.011 31.8693 240.92 32.5573 240.92 33.4C240.92 34.2427 241.011 34.9307 241.192 35.464C241.384 35.9973 241.64 36.3867 241.96 36.632C242.291 36.8773 242.669 37 243.096 37ZM253.955 39.192C253.038 39.192 252.217 38.968 251.491 38.52C250.766 38.0613 250.195 37.4 249.779 36.536C249.363 35.672 249.155 34.6267 249.155 33.4C249.155 32.1733 249.363 31.128 249.779 30.264C250.195 29.4 250.766 28.744 251.491 28.296C252.217 27.8373 253.038 27.608 253.955 27.608C254.883 27.608 255.705 27.8373 256.419 28.296C257.145 28.744 257.715 29.4 258.131 30.264C258.547 31.128 258.755 32.1733 258.755 33.4C258.755 34.6267 258.547 35.672 258.131 36.536C257.715 37.4 257.145 38.0613 256.419 38.52C255.705 38.968 254.883 39.192 253.955 39.192ZM253.955 37C254.393 37 254.771 36.8773 255.091 36.632C255.422 36.3867 255.678 35.9973 255.859 35.464C256.051 34.9307 256.147 34.2427 256.147 33.4C256.147 32.5573 256.051 31.8693 255.859 31.336C255.678 30.8027 255.422 30.4133 255.091 30.168C254.771 29.9227 254.393 29.8 253.955 29.8C253.529 29.8 253.15 29.9227 252.819 30.168C252.499 30.4133 252.243 30.8027 252.051 31.336C251.87 31.8693 251.779 32.5573 251.779 33.4C251.779 34.2427 251.87 34.9307 252.051 35.464C252.243 35.9973 252.499 36.3867 252.819 36.632C253.15 36.8773 253.529 37 253.955 37ZM270.226 39.192C268.637 39.192 267.394 38.7493 266.498 37.864C265.602 36.9787 265.154 35.7147 265.154 34.072V27.8H267.746V33.976C267.746 35.0427 267.965 35.8107 268.402 36.28C268.839 36.7493 269.453 36.984 270.242 36.984C271.031 36.984 271.645 36.7493 272.082 36.28C272.519 35.8107 272.738 35.0427 272.738 33.976V27.8H275.298V34.072C275.298 35.7147 274.85 36.9787 273.954 37.864C273.058 38.7493 271.815 39.192 270.226 39.192ZM276.153 39L281.145 27.8H283.705L288.713 39H285.993L281.897 29.112H282.921L278.809 39H276.153ZM278.649 36.6L279.337 34.632H285.097L285.801 36.6H278.649ZM297.555 27.8H300.147V39H297.555V27.8ZM292.467 39H289.875V27.8H292.467V39ZM297.747 34.408H292.275V32.216H297.747V34.408Z" fill="#F87848"/>
<g filter="url(#filter0_d_6_5)">
<circle cx="24.5" cy="87.5" r="16.5" fill="url(#paint1_linear_6_5)"/>
<circle cx="24.5" cy="87.5" r="16.5" fill="white"/>
</g>
<path d="M23.9312 91.516V83.884H25.0652V91.516H23.9312ZM20.5832 88.24V87.178H28.4132V88.24H20.5832Z" fill="url(#paint2_linear_6_5)"/>
<defs>
<filter id="filter0_d_6_5" x="0" y="67" width="49" height="49" filterUnits="userSpaceOnUse" color-interpolation-filters="sRGB">
<feFlood flood-opacity="0" result="BackgroundImageFix"/>
<feColorMatrix in="SourceAlpha" type="matrix" values="0 0 0 0 0 0 0 0 0 0 0 0 0 0 0 0 0 0 127 0" result="hardAlpha"/>
<feOffset dy="4"/>
<feGaussianBlur stdDeviation="4"/>
<feColorMatrix type="matrix" values="0 0 0 0 0.804167 0 0 0 0 0.662633 0 0 0 0 0.160833 0 0 0 0.26 0"/>
<feBlend mode="normal" in2="BackgroundImageFix" result="effect1_dropShadow_6_5"/>
<feBlend mode="normal" in="SourceGraphic" in2="effect1_dropShadow_6_5" result="shape"/>
</filter>
<linearGradient id="paint0_linear_6_5" x1="109.5" y1="26.5" x2="109.5" y2="64.5" gradientUnits="userSpaceOnUse">
<stop stop-color="#FE5626"/>
<stop offset="1" stop-color="#F23F0E"/>
</linearGradient>
<linearGradient id="paint1_linear_6_5" x1="25.0683" y1="142.199" x2="-8.20339" y2="131.553" gradientUnits="userSpaceOnUse">
<stop stop-color="#F58656"/>
<stop offset="1" stop-color="#FE5626"/>
</linearGradient>
<linearGradient id="paint2_linear_6_5" x1="24.6894" y1="128.938" x2="12.701" y2="127.251" gradientUnits="userSpaceOnUse">
<stop stop-color="#F58656"/>
<stop offset="1" stop-color="#FE5626"/>
</linearGradient>
</defs>
</svg>
