<svg width="1440" height="1306" viewBox="0 0 1440 1306" fill="none" xmlns="http://www.w3.org/2000/svg">
<g opacity="0.1">
<path d="M103.932 91.5222C106.248 94.2636 104.46 96.6906 102.387 98.3265C100.44 99.6944 98.4591 99.7349 96.461 99.1118L96.1935 98.9845C93.6942 99.434 92.448 97.202 91.2187 95.6335C90.2569 94.1924 88.777 93.1603 87.4224 91.8601C87.4224 91.8601 87.1548 91.7328 86.8873 91.6054C86.1016 91.8871 84.9062 91.646 84.2628 92.3231C84.6895 93.5096 85.509 94.5552 86.4539 95.3327C87.3987 96.1101 87.8254 97.2965 88.645 98.3422C89.197 99.2605 88.1946 101.406 87.033 102.492C85.1027 104.523 82.8541 104.437 80.3379 104.222C79.41 104.109 77.9639 104.404 77.1613 104.022C76.8938 103.895 76.3587 103.64 76.0912 103.513C74.5944 101.817 72.7047 100.262 71.4584 98.0299C71.1739 97.2389 70.6389 96.9842 70.0869 96.066C69.3926 94.7522 68.59 94.3702 67.5537 95.1882C66.5175 96.0062 65.4643 96.1606 64.2688 95.9194C65.6234 97.2197 66.7275 99.0563 68.0821 100.357C69.4367 101.657 70.0056 103.239 70.4493 105.089C70.876 106.275 70.1073 107.221 68.8035 107.911C65.9283 109.165 62.894 109.36 59.7344 109.823C58.2884 110.118 57.2013 108.945 55.9889 108.041C55.7214 107.913 55.0441 107.263 54.2415 106.881C53.4389 106.499 53.0291 105.976 52.7446 105.185C51.3561 102.558 49.0567 100.48 48.1863 97.4437C47.167 98.9253 46.1138 99.0797 44.7761 98.4431C44.241 98.1884 43.4384 97.8065 43.0625 98.6109C42.8119 99.1472 43.6145 99.5292 43.7568 99.9247C45.6634 102.143 47.4447 104.63 49.3513 106.849C49.7611 107.371 50.0287 107.499 50.4384 108.021C51.793 109.322 51.8439 111.313 50.557 112.667C47.5904 115.516 43.7874 116.657 39.5407 115.947C38.6128 115.833 38.3283 115.042 37.7933 114.787C36.1711 113.36 34.2814 111.805 32.6593 110.377C30.2345 108.568 29.2389 105.799 27.4575 103.313C26.9055 102.394 26.7463 101.335 26.1943 100.417C26.0521 100.021 26.0521 100.021 25.517 99.7667C22.7164 98.7617 20.952 96.9386 19.4382 94.5792C17.6569 92.0925 15.3574 90.0148 13.1833 87.6689C11.2936 86.114 9.92203 84.1501 8.67578 81.9181C6.89445 79.4313 4.86253 77.481 3.47404 74.8534C2.22779 72.6213 1.24907 70.5166 0.39565 68.1437C-0.0310597 66.9573 -0.45777 65.7708 -1.00978 64.8525C-2.64887 62.7613 -3.62759 60.6566 -3.69534 58.002C-3.88839 55.6156 -5.25994 53.6517 -6.75679 51.9559C-8.39588 49.8647 -10.4278 47.9143 -12.0669 45.8231C-12.6189 44.9048 -13.5468 44.791 -14.0988 43.8727C-16.5574 40.7359 -16.5168 37.1495 -15.423 33.4088C-15.0471 32.6043 -14.6712 31.7998 -14.5629 30.868C-14.4545 29.9362 -13.8111 29.259 -12.9001 28.7092C-11.1865 28.5413 -9.63214 27.3143 -7.79327 26.8783C-5.16873 26.1606 -2.63561 27.0384 0.0228009 27.648C2.68122 28.2576 5.48187 29.2626 7.90662 31.0722C9.119 31.977 10.8495 32.4727 12.5631 32.3049C14.937 32.1235 17.1687 31.5466 19.4174 31.6334C22.0589 31.5794 24.575 31.7935 27.2334 32.4031C29.3568 32.758 30.8536 34.4538 32.4758 35.8813C33.8304 37.1816 35.4187 37.2819 37.1492 37.7777C37.6843 38.0323 38.0771 37.8915 38.1855 36.9597C38.1685 36.296 38.6866 35.887 39.364 36.5372C39.6315 36.6645 39.6315 36.6645 39.899 36.7918C41.8632 36.0876 43.9865 36.4426 45.8254 36.0066C47.0039 35.584 48.0741 36.0933 49.1442 36.6026C50.4819 37.2393 51.8195 37.8759 53.1572 38.5125C54.1021 39.2899 55.03 39.4037 55.8156 39.1221C57.1364 39.095 58.4571 39.068 59.6356 38.6455C62.653 37.787 65.2945 37.7329 68.1121 39.4016C69.9848 40.2929 72.1081 40.6479 74.0723 39.9437C77.0897 39.0851 79.6228 39.9629 81.5125 41.5178C84.2048 43.4547 86.7718 45.6597 88.8206 48.2737C90.1922 50.2376 91.9566 52.0607 93.9716 53.3475C96.1288 55.0297 97.7679 57.1209 99.407 59.2121C101.866 62.349 104.324 65.4858 107.176 68.4818C107.585 69.0046 107.853 69.132 107.87 69.7956C108.74 72.8321 111.04 74.9098 113.214 77.2557C114.711 78.9515 115.547 80.6607 116.651 82.4973C116.793 82.8928 116.936 83.2883 117.203 83.4156C118.131 83.5294 117.881 84.0657 117.362 84.4747C117.237 84.7429 117.112 85.011 117.112 85.011C117.647 85.2657 117.898 84.7294 118.165 84.8567C118.558 84.7159 118.951 84.575 118.968 85.2387C119.11 85.6341 118.592 86.0431 118.324 85.9158C117.522 85.5338 117.539 86.1975 117.413 86.4657C115.859 87.6926 116.929 88.2019 117.749 89.2475C119.245 90.9433 120.742 92.639 122.114 94.6029C123.076 96.044 122.842 97.244 121.145 98.0755C119.181 98.7797 117.217 99.4839 115.236 99.5244C113.522 99.6923 111.917 98.9283 111.081 97.2191C110.244 95.5098 108.764 94.4777 107.535 92.9093C106.431 91.0727 105.361 90.5634 103.932 91.5222ZM55.623 88.5269C54.8373 88.8085 54.4614 89.613 53.9433 90.022C54.729 89.7403 55.3724 89.0632 55.623 88.5269C55.8905 88.6542 56.0158 88.386 56.1411 88.1179C55.8736 87.9905 55.7483 88.2587 55.623 88.5269ZM94.8252 81.616C93.772 81.7703 93.2708 82.8429 92.3598 83.3928C93.1624 83.7747 93.43 83.9021 93.8059 83.0976C94.0565 82.5613 94.5746 82.1523 94.8252 81.616C95.0927 81.7433 95.218 81.4751 94.8252 81.616C94.9505 81.3478 94.9505 81.3478 94.8252 81.616ZM113.007 84.6966C113.935 84.8104 114.22 85.6014 114.897 86.2515C115.039 86.647 115.574 86.9017 115.825 86.3654C116.343 85.9564 116.201 85.5609 115.541 85.5744C115.273 85.4471 115.005 85.3197 115.398 85.1789C116.292 83.9654 115.222 83.4561 115.205 82.7925C114.294 83.3423 113.509 83.624 113.007 84.6966C112.865 84.3011 112.865 84.3011 113.007 84.6966C112.74 84.5693 112.74 84.5693 113.007 84.6966ZM37.3327 112.274L37.6002 112.401C37.3327 112.274 37.458 112.005 37.3327 112.274C38.9785 109.451 41.1933 108.211 44.2276 108.016C45.5483 107.989 46.7268 107.566 48.1898 107.935C46.5507 105.843 45.0369 103.484 43.005 101.534C42.1854 100.488 41.3659 99.4424 40.7969 97.8605C40.2449 96.9422 37.5526 95.0053 36.767 95.287C34.8028 95.9912 32.6795 95.6362 30.8406 96.0723C30.4478 96.2131 30.0549 96.3539 29.5368 96.7629C27.3559 99.3307 27.3559 99.3307 28.8866 102.354L29.0289 102.749C30.2582 104.318 30.7018 106.168 31.9311 107.736C33.8208 109.291 35.3177 110.987 37.3327 112.274ZM75.6877 46.2849C75.9553 46.4122 75.9553 46.4122 75.6877 46.2849C75.9383 45.7486 76.1889 45.2123 76.172 44.5486C76.1551 43.885 76.4057 43.3487 76.9407 43.6033C77.4758 43.858 77.3505 44.1261 77.0999 44.6624C76.8662 45.8624 76.7579 46.7942 76.5242 47.9942C76.2736 48.5305 76.8087 48.7851 77.2015 48.6443C77.4691 48.7716 77.5944 48.5035 77.4521 48.108C77.5774 47.8398 77.5774 47.8398 77.7027 47.5717C77.9533 47.0353 77.5266 45.8489 78.5967 46.3582C79.3994 46.7402 78.6306 47.6855 78.5053 47.9536C77.8788 49.2944 78.1633 50.0854 79.3757 50.9902C79.6263 50.4539 79.484 50.0584 79.7346 49.5221C79.5924 49.1266 79.5755 48.4629 80.5034 48.5767C81.1637 48.5632 80.7878 49.3677 80.9301 49.7632C80.5711 51.2313 80.0869 52.9676 81.9596 53.8589C82.2102 53.3225 82.3186 52.3907 82.3016 51.7271C82.4269 51.4589 82.41 50.7953 82.9451 51.0499C83.3379 50.9091 83.3548 51.5727 83.2295 51.8409C83.1042 52.1091 83.2465 52.5045 82.9959 53.0409C82.1188 54.918 82.2949 56.6408 83.5242 58.2092C83.7579 57.0092 84.1338 56.2047 84.3674 55.0048C84.618 54.4684 84.618 54.4684 85.0109 54.3276C85.6712 54.3141 85.8135 54.7096 85.5629 55.2459C85.0617 56.3185 85.3631 57.7731 84.2015 58.8593C84.0762 59.1275 84.0762 59.1275 84.0762 59.1275C84.486 59.6503 84.6452 60.7094 85.4478 61.0914C85.607 62.1505 86.4096 62.5325 87.3544 63.3099C87.5881 62.11 88.0893 61.0373 88.3229 59.8373C88.5735 59.301 88.6988 59.0329 88.9663 59.1602C89.6267 59.1467 89.3761 59.683 89.2508 59.9512C89.1425 60.883 89.0341 61.8148 88.5329 62.8874C88.0317 63.96 88.1909 65.0192 89.1357 65.7966C89.1357 65.7966 89.0104 66.0648 89.4033 65.9239L89.5286 65.6558C89.9045 64.8513 90.1381 63.6513 90.514 62.8469C90.6393 62.5787 90.6224 61.9151 91.1574 62.1697C91.6925 62.4244 91.5672 62.6925 91.3166 63.2288C90.9407 64.0333 90.9577 64.697 90.5818 65.5014C90.3312 66.0378 90.0806 66.5741 90.0975 67.2377C90.934 68.947 92.1633 70.5154 93.2673 72.352C93.3587 70.7565 93.7177 69.2884 94.3442 67.9476C94.4695 67.6794 94.4526 67.0158 94.9876 67.2705C95.5227 67.5251 95.3974 67.7933 95.1468 68.3296C94.7878 69.7977 94.5542 70.9977 93.9277 72.3385C93.5518 73.1429 93.5687 73.8066 93.9954 74.993C94.605 72.9886 95.4821 71.1115 96.2339 69.5025C96.3592 69.2344 96.0747 68.4434 96.6098 68.698C97.1448 68.9527 97.2871 69.3482 97.0365 69.8845C96.2847 71.4934 95.8004 73.2297 95.0487 74.8387C94.1546 76.0522 94.8319 76.7023 95.3839 77.6206C95.5262 78.0161 95.7937 78.1434 96.1865 78.0026L96.4371 77.4662C96.9214 75.7299 97.2634 73.5982 97.7477 71.8619C97.9983 71.3256 98.3742 70.5211 98.6248 69.9848C98.7501 69.7166 99.1429 69.5758 99.4104 69.7031C99.9455 69.9578 99.5527 70.0986 99.3021 70.6349C99.0515 71.1712 98.9262 71.4394 98.6756 71.9757C98.066 73.9802 97.724 76.1119 97.2397 77.8482C96.9891 78.3845 96.7385 78.9208 96.8808 79.3163C97.5581 79.9665 97.7173 81.0256 98.5199 81.4076C99.3225 81.7895 99.4647 82.185 99.4817 82.8486C99.8745 82.7078 99.9998 82.4397 100.125 82.1715C100.752 80.8307 101.111 79.3626 101.737 78.0218C101.988 77.4855 102.238 76.9491 103.041 77.3311C103.576 77.5857 103.058 77.9947 102.807 78.5311L102.682 78.7992C101.93 80.4082 101.856 82.6673 100.301 83.8943C100.301 83.8943 99.9084 84.0351 100.176 84.1624C100.853 84.8125 100.352 85.8852 101.029 86.5353C101.707 87.1855 101.456 87.7218 100.545 88.2716C101.49 89.0491 102.401 88.4992 103.329 88.613C104.257 88.7268 104.775 88.3178 104.348 87.1314C104.223 87.3996 104.223 87.3996 104.223 87.3996C104.098 87.6677 103.579 88.0767 103.312 87.9494C103.044 87.8221 103.295 87.2857 103.42 87.0176C103.796 86.2131 104.565 85.2678 104.941 84.4633C105.066 84.1952 105.317 83.6588 105.852 83.9135C106.387 84.1681 106.404 84.8318 106.011 84.9726C105.886 85.2408 105.493 85.3816 105.902 85.9044C107.064 84.8183 108.226 83.7321 109.387 82.6459C109.905 82.237 110.423 81.828 110.833 82.3508C111.653 83.3964 112.029 82.5919 112.279 82.0556C112.797 81.6466 113.316 81.2376 113.976 81.2241C112.337 79.1328 110.572 77.3098 108.933 75.2185C107.579 73.9183 107.528 71.9274 106.173 70.6271C103.447 67.3629 100.721 64.0988 98.1201 60.5665C96.481 58.4752 94.5744 56.2567 92.2919 54.8426C90.812 53.8105 89.4573 52.5103 88.3533 50.6737C87.6591 49.3599 86.572 48.187 85.2343 47.5503C84.4317 47.1684 83.6122 46.1228 82.9349 45.4726C80.3509 42.6039 76.7477 41.2169 73.2291 43.1481C74.157 43.2619 74.0486 44.1937 74.7259 44.8438L74.8512 44.5757C75.1018 44.0393 75.3524 43.503 75.8875 43.7577C76.4226 44.0123 75.9045 44.4213 76.0467 44.8168C75.6539 44.9576 75.6708 45.6213 75.6877 46.2849ZM83.0063 84.5138C83.1655 85.5729 83.0571 86.5047 83.2163 87.5638L83.4838 87.6911C84.4862 85.5459 85.4886 83.4006 86.491 81.2553C88.0962 82.0192 86.132 82.7234 86.684 83.6417C87.4697 83.36 87.8456 82.5556 88.3807 82.8102C88.9157 83.0649 89.041 82.7967 89.4339 82.6559C90.2026 81.7105 91.2389 80.8926 91.8823 80.2154C92.2751 80.0746 92.2582 79.4109 92.7933 79.6656C93.203 80.1884 92.6849 80.5974 92.5596 80.8655C91.9162 81.5427 91.0052 82.0925 90.2365 83.0378L90.1112 83.306L90.3787 83.4333C90.9138 83.688 91.1644 83.1516 91.2897 82.8835C92.0584 81.9382 92.9694 81.3883 93.6128 80.7112C94.1309 80.3022 94.9166 80.0205 95.0758 81.0796C94.9505 81.3478 95.218 81.4751 95.3433 81.207C95.4686 80.9388 95.8615 80.798 95.5939 80.6706C95.3264 80.5433 95.1842 80.1478 95.1842 80.1478C93.9718 79.2431 93.1522 78.1974 92.5833 76.6155C91.6046 74.5108 91.0187 72.2652 89.6471 70.3013C88.2756 68.3374 87.2969 66.2326 85.8 64.5369C83.6258 62.191 82.1121 59.8316 80.8489 56.9359C80.2799 55.354 79.3181 53.9129 78.2311 52.74C76.0569 50.3941 74.1503 48.1755 72.8871 45.2798C72.4434 43.4297 71.2141 41.8613 68.9655 41.7745C68.3051 41.7881 67.8953 41.2653 67.3603 41.0106C66.2901 40.5013 65.0947 40.2602 64.0415 40.4145C61.7928 40.3277 59.7034 41.3001 57.4717 41.8769C60.2893 43.5457 61.9453 46.3005 63.6013 49.0554C63.818 47.1918 64.4445 45.851 65.3385 44.6375C65.4638 44.3694 65.7144 43.833 66.2495 44.0877C66.7846 44.3423 66.534 44.8787 66.2834 45.415C65.7822 46.4876 65.281 47.5603 64.7798 48.6329C63.8858 49.8464 64.1872 51.301 65.0067 52.3466C65.5587 53.2649 66.253 54.5787 67.0725 55.6243C67.2148 56.0197 67.7668 56.938 68.2849 56.529C68.6777 56.3882 68.9283 55.8519 68.9114 55.1882C69.2873 54.3838 69.7885 53.3111 70.1644 52.5066C70.2897 52.2385 70.5403 51.7022 71.0754 51.9568C71.6104 52.2115 71.0923 52.6205 70.967 52.8886C70.7164 53.4249 70.608 54.3567 70.3574 54.8931C69.8562 55.9657 69.355 57.0383 68.4441 57.5882C68.8539 58.111 69.2636 58.6338 69.5481 59.4247C69.924 58.6203 69.9071 57.9566 70.1577 57.4203C70.5335 56.6158 70.7672 55.4159 71.4106 54.7387C71.5359 54.4705 71.9288 54.3297 72.1963 54.457C72.4638 54.5844 72.3385 54.8525 72.2132 55.1207C71.5868 56.4615 70.9603 57.8023 70.3338 59.1431C70.0832 59.6794 69.8156 59.5521 69.1553 59.5656C69.8326 60.2157 69.9918 61.2748 70.7944 61.6568C71.6884 60.4433 71.6545 59.116 72.281 57.7753C72.4063 57.5071 72.3894 56.8434 72.9244 57.0981C73.4595 57.3527 73.3342 57.6209 73.3511 58.2845C73.2428 59.2163 73.0091 60.4163 72.2404 61.3616C71.4717 62.3069 71.7561 63.0979 72.701 63.8754C73.3275 62.5346 73.6864 61.0664 74.3129 59.7256C74.4382 59.4575 74.4213 58.7938 74.9564 59.0485C75.4914 59.3031 75.3661 59.5713 75.2408 59.8395C74.8649 60.6439 74.7566 61.5757 74.3807 62.3802C72.9685 64.0027 73.5375 65.5846 74.6245 66.7576C74.8921 66.8849 74.7668 67.153 74.7668 67.153C75.3188 68.0713 75.6033 68.8623 76.6734 69.3716C77.3846 71.349 78.3633 73.4537 79.9855 74.8813C80.805 75.9269 81.1978 75.7861 82.0919 74.5726C82.4678 73.7682 82.8437 72.9637 83.2196 72.1592C83.3449 71.891 83.863 71.482 84.1305 71.6094C84.6656 71.864 84.415 72.4003 84.2897 72.6685C83.7885 73.7411 83.2873 74.8138 82.3763 75.3636C80.9472 76.3224 81.3739 77.5089 81.926 78.4272C82.3527 79.6136 82.5118 80.6727 82.7963 81.4637C82.8302 82.791 82.7218 83.7228 83.0063 84.5138ZM39.5841 45.1645C39.4588 45.4327 39.4588 45.4327 39.7264 45.56C41.4908 47.3831 42.3442 49.756 43.5904 51.988C44.8367 54.2201 45.6901 56.593 46.6688 58.6977C47.0955 59.8842 48.3079 60.789 48.7346 61.9754C49.7133 64.0802 50.5498 65.7894 51.9214 67.7533C52.3312 68.2761 52.7409 68.7989 53.1507 69.3217C54.8067 72.0766 56.5881 74.5633 58.6369 77.1774C61.0955 80.3142 64.2146 83.4375 64.4584 87.8149C64.6007 88.2103 64.6176 88.874 65.278 88.8605C65.9383 88.847 65.6877 89.3833 65.1696 89.7923C64.2586 90.3421 63.3646 91.5556 62.4536 92.1054C61.5427 92.6553 62.4875 93.4327 62.2369 93.969C62.1116 94.2372 62.7889 94.8873 63.1818 94.7465C64.77 94.8468 66.3583 94.9471 67.6452 93.5928C66.023 92.1652 66.023 92.1652 64.4686 93.3922C64.3433 93.6603 64.0758 93.533 63.9505 93.8012C63.5577 93.942 63.4324 94.2102 62.8973 93.9555C62.4875 93.4327 62.8803 93.2919 63.2732 93.151C64.4517 92.7285 64.4009 90.7376 65.8469 90.4424C65.9553 89.5106 66.3312 88.7061 66.9746 88.029C67.0999 87.7608 67.2252 87.4927 66.9577 87.3653C66.4226 87.1107 66.5479 86.8425 66.6732 86.5744C67.1744 85.5017 67.6756 84.4291 68.1768 83.3564C68.3021 83.0883 68.2851 82.4246 68.8202 82.6793C69.3553 82.9339 69.1047 83.4703 68.9794 83.7384C68.6035 84.5429 68.2276 85.3474 67.9939 86.5473C68.9049 85.9975 69.423 85.5885 70.0665 84.9114C70.4593 84.7705 70.5846 84.5024 71.1197 84.757C71.5294 85.2798 71.6547 85.0116 72.0476 84.8708C72.5657 84.4618 73.2091 83.7847 73.9948 83.503C74.3876 83.3621 74.9058 82.9532 75.048 83.3486C75.7253 83.9988 76.2434 83.5898 76.7616 83.1808C77.1544 83.0399 77.5472 82.8991 77.6895 83.2946C77.8317 83.6901 77.4389 83.8309 77.3136 84.0991C76.4026 84.6489 75.4916 85.1987 74.8482 85.8759C75.3833 86.1305 75.9014 85.7215 76.0267 85.4534C76.9377 84.9035 77.5811 84.2264 78.6174 83.4084C79.0102 83.2676 79.2608 82.7312 79.7959 82.9859C80.331 83.2405 79.5453 83.5222 79.6875 83.9177C80.0803 83.7768 80.5985 83.3679 80.9913 83.227C81.3841 83.0862 81.5094 82.818 81.3672 82.4225C81.0658 80.9679 80.6221 79.1178 80.3207 77.6632C79.552 78.6085 78.8916 78.6221 79.1422 78.0857C79.5012 76.6176 78.2888 75.7128 77.7368 74.7945C75.5118 70.4577 73.0363 66.6573 70.2932 62.7295C68.9047 60.1019 67.1233 57.6152 65.342 55.1285C63.8282 52.7691 62.565 49.8734 61.0513 47.514C58.5757 43.7135 55.5989 40.9857 51.5859 39.0758C49.1781 37.9299 46.8041 38.1113 44.1627 38.1654C43.1095 38.3197 42.3238 38.6014 41.3959 38.4876C40.0751 38.5146 39.005 38.0053 37.8434 39.0914C37.7181 39.3596 37.1831 39.105 36.5227 39.1185C36.1299 39.2593 35.3273 38.8773 34.5246 38.4954C35.3442 39.541 35.6287 40.332 36.306 40.9821C37.2678 42.4232 38.2295 43.8643 39.5841 45.1645ZM15.6245 38.3509C15.4992 38.6191 15.4992 38.6191 15.6245 38.3509C15.7668 38.7464 15.8921 38.4783 15.6245 38.3509C16.0004 37.5465 16.3763 36.742 16.7522 35.9375C16.8775 35.6693 17.2534 34.8649 17.7885 35.1195C18.3236 35.3742 18.073 35.9105 17.8224 36.4468C17.3212 37.5194 16.9622 38.9876 16.7286 40.1875C17.1045 39.383 17.3551 38.8467 17.7309 38.0422C17.8562 37.7741 18.2491 37.6332 18.5166 37.7606C18.7841 37.8879 18.6588 38.156 18.5336 38.4242C18.1577 39.2287 18.1746 39.8923 17.7987 40.6968C17.1722 42.0376 17.1722 42.0376 18.5099 42.6742C18.6013 41.0788 18.9603 39.6107 19.8543 38.3972C19.9796 38.129 20.1049 37.8609 20.3724 37.9882C20.64 38.1155 20.7822 38.511 20.6569 38.7792C20.4063 39.3155 20.0304 40.12 20.0473 40.7836C19.939 41.7154 19.4378 42.788 19.597 43.8472C19.7223 43.579 19.8476 43.3108 19.9729 43.0427C20.2235 42.5064 19.922 41.0518 20.8499 41.1656C21.6526 41.5475 20.8838 42.4928 20.7755 43.4247C20.6671 44.3565 20.3996 44.2291 21.3444 45.0066C21.3105 43.6793 22.3468 42.8613 22.5805 41.6613C22.8311 41.125 22.6888 40.7295 23.2239 40.9842C23.759 41.2388 23.9012 41.6343 23.6506 42.1706C23.1494 43.2433 22.7735 44.0478 22.5398 45.2477C22.164 46.0522 21.7881 46.8567 22.7329 47.6341C22.7329 47.6341 22.7329 47.6341 22.8751 48.0296L23.0004 47.7615C23.3763 46.957 23.3594 46.2933 23.7353 45.4889C23.8606 45.2207 23.9859 44.9525 24.521 45.2072C25.056 45.4618 24.6632 45.6027 24.8054 45.9981C24.4295 46.8026 24.4465 47.4663 24.0706 48.2707C23.6947 49.0752 23.8369 49.4707 24.2467 49.9935C24.6226 49.189 24.4634 48.1299 25.2321 47.1846C25.3574 46.9164 25.608 46.3801 26.1431 46.6348C26.6782 46.8894 26.4276 47.4257 26.3023 47.6939C25.8011 48.7665 25.835 50.0938 25.3338 51.1665C25.0832 51.7028 25.1001 52.3664 25.9027 52.7484C26.2786 51.9439 26.387 51.0121 26.7629 50.2076C26.8882 49.9395 27.0135 49.6713 27.4063 49.5305C28.0667 49.517 27.8161 50.0533 27.9583 50.4488C27.5824 51.2532 27.5993 51.9169 27.2235 52.7214C26.7223 53.794 26.4886 54.994 27.701 55.8987C28.2022 54.8261 28.3105 53.8943 28.8117 52.8217C28.937 52.5535 29.0623 52.2853 29.5974 52.54C29.8649 52.6673 30.0072 53.0628 29.8819 53.3309C29.6313 53.8673 29.2554 54.6718 29.2723 55.3354C28.9134 56.8035 28.6797 58.0035 29.3739 59.3173L29.6415 59.4446L29.7668 59.1764C30.0004 57.9765 30.1088 57.0446 30.61 55.972C30.7353 55.7039 30.593 55.3084 30.9859 55.1675C31.6462 55.154 31.7885 55.5495 31.5379 56.0858C31.4295 57.0176 31.0536 57.8221 31.0706 58.4857C31.2297 59.5449 30.0682 60.631 31.1553 61.804C31.03 62.0721 31.2975 62.1994 31.565 62.3268C31.9579 62.1859 31.6903 62.0586 31.5481 61.6631C31.5142 60.3358 31.6056 58.7404 32.2321 57.3996C32.4827 56.8633 32.7333 56.327 33.5359 56.7089C34.071 56.9636 33.5529 57.3726 33.3023 57.9089C32.5505 59.5178 32.3338 61.3815 32.7774 63.2315C33.1533 62.4271 33.4039 61.8907 33.5123 60.9589C33.6376 60.6908 33.8882 60.1545 34.4232 60.4091C34.9583 60.6638 34.5655 60.8046 34.7077 61.2001C34.4571 61.7364 34.5993 62.1319 34.3487 62.6682C33.9898 64.1363 32.9705 65.618 33.9322 67.0591C33.9322 67.0591 33.8069 67.3272 34.0745 67.4545L34.1998 67.1864C34.4334 65.9864 34.6671 64.7865 34.9008 63.5865C35.0261 63.3183 35.2767 62.782 35.937 62.7685C36.5974 62.755 35.954 63.4321 36.2215 63.5595C36.506 64.3504 36.1301 65.1549 35.7542 65.9594C35.6458 66.8912 35.1446 67.9638 35.6966 68.8821C35.8219 68.614 36.0725 68.0776 36.1978 67.8095C36.0556 67.414 36.1809 67.1458 36.4484 67.2732C36.716 67.4005 36.9835 67.5278 37.1257 67.9233C37.268 68.3188 37.1427 68.5869 37.0174 68.8551C36.7837 70.0551 36.1572 71.3959 36.7262 72.9778C36.7262 72.9778 36.7262 72.9778 36.6009 73.2459C36.6009 73.2459 36.6009 73.2459 36.7262 72.9778C36.7262 72.9778 36.7262 72.9778 36.4586 72.8505C36.9768 72.4415 36.8345 72.046 36.9598 71.7778C37.0682 70.846 37.1765 69.9142 37.82 69.2371C37.9453 68.9689 37.9283 68.3053 38.4634 68.5599C38.9985 68.8146 38.8732 69.0827 38.8901 69.7464C38.6565 70.9463 38.565 72.5418 38.3314 73.7417C38.223 74.6735 38.2399 75.3372 38.6497 75.86C39.1679 75.451 38.7581 74.9282 38.8834 74.66C39.0087 74.3919 39.134 74.1237 39.4015 74.251C39.669 74.3783 39.5438 74.6465 39.686 75.042C39.5776 75.9738 39.344 77.1738 39.2356 78.1056C39.0019 79.3055 39.2864 80.0965 40.2313 80.8739C40.3227 79.2785 39.2187 77.4419 40.8984 75.9468C41.0237 75.6786 41.0067 75.015 41.8093 75.3969C42.3444 75.6516 42.0938 76.1879 41.9685 76.4561C41.0745 77.6695 41.2337 78.7287 41.2675 80.0559C41.4267 81.1151 41.5859 82.1742 41.0847 83.2468C40.9594 83.515 41.1016 83.9105 41.3692 84.0378C41.8704 82.9652 41.9787 82.0334 42.2124 80.8334C42.3377 80.5652 42.1954 80.1698 42.5883 80.0289C42.8558 80.1562 43.1233 80.2836 43.2656 80.679C43.1572 81.6109 43.4417 82.4018 43.3333 83.3336C42.7068 84.6744 42.7407 86.0017 43.435 87.3155C43.5772 87.711 42.6662 88.2608 43.7364 88.7701C44.3629 87.4293 44.9894 86.0885 45.3483 84.6204C45.5989 84.0841 45.8495 83.5477 46.3846 83.8024C47.0449 83.7889 46.4015 84.466 46.5438 84.8615C46.4693 87.1206 44.8065 89.2794 45.9275 91.7796C45.9275 91.7796 45.8022 92.0478 45.6769 92.3159C45.5516 92.5841 45.284 92.4568 45.0165 92.3294C44.6067 91.8066 43.8041 91.4247 43.3943 90.9019C42.3242 90.3926 41.5047 89.3469 41.2032 87.8923C40.4751 85.2513 39.3542 82.7511 38.1079 80.519C36.3097 77.3686 35.0295 73.8093 33.3566 70.3908C32.1103 68.1587 31.5075 65.2495 29.8684 63.1583C28.7813 61.9853 28.2124 60.4034 27.5181 59.0896C25.3101 55.4165 23.6202 51.3343 21.0193 47.802C20.6096 47.2792 20.1998 46.7564 19.9322 46.6291C18.7199 45.7243 17.5075 44.8195 16.8132 43.5057C15.4248 40.8782 13.3759 38.2642 11.5946 35.7774C10.3483 33.5454 9.27818 33.0361 8.20804 32.5268C5.24821 30.4626 2.18002 29.3302 -1.4063 28.6068C-3.79718 28.1245 -6.18806 27.6423 -8.79566 29.0236C-9.70662 29.5734 -10.4923 29.8551 -11.4033 30.4049C-13.3674 31.1091 -13.7433 31.9136 -13.8178 34.1727C-13.2997 33.7637 -13.3166 33.1001 -12.7985 32.6911C-12.9407 32.2956 -12.4226 31.8866 -12.2803 32.2821C-12.1381 32.6775 -12.2634 32.9457 -12.3887 33.2139C-13.2827 34.4273 -13.9092 35.7681 -14.5357 37.1089C-15.1622 38.4497 -14.8608 39.9043 -14.5594 41.359C-14.0582 40.2863 -14.0751 39.6227 -13.9668 38.6909C-13.767 36.1636 -12.4801 34.8093 -10.5329 33.4415C-10.1401 33.3006 -10.0148 33.0325 -9.605 33.5553C-9.19522 34.0781 -9.58806 34.2189 -9.98089 34.3598C-11.0172 35.1778 -10.9833 36.5051 -11.6098 37.8459C-11.7351 38.114 -11.7181 38.7777 -11.8434 39.0458C-12.5783 41.3184 -12.6528 43.5775 -10.8884 45.4006C-10.8884 45.4006 -10.7462 45.7961 -10.6209 45.5279C-10.6209 45.5279 -10.6209 45.5279 -10.7631 45.1324C-11.0645 43.6778 -10.9731 42.0824 -10.6141 40.6142C-10.2552 39.1461 -10.0384 37.2825 -8.60934 36.3237C-8.21651 36.1828 -7.96591 35.6465 -7.55614 36.1693C-7.4139 36.5648 -7.5392 36.833 -7.93203 36.9738C-9.84539 39.6689 -10.1705 42.4643 -9.30011 45.5009C-9.14094 46.56 -9.40847 46.4327 -10.3364 46.3189C-9.53377 46.7008 -9.51683 47.3645 -8.71423 47.7464C-8.73117 47.0828 -8.87341 46.6873 -8.62281 46.151C-8.53138 44.5556 -8.43996 42.9601 -7.2784 41.874C-7.1531 41.6058 -6.7772 40.8013 -6.36743 41.3241C-5.83236 41.5788 -6.35049 41.9878 -6.60109 42.5241C-7.47818 44.4012 -7.6949 46.2648 -7.37655 48.3831C-6.62476 46.7741 -6.14051 45.0378 -5.65625 43.3015C-5.53095 43.0334 -5.28035 42.4971 -5.01282 42.6244C-4.47775 42.879 -4.72834 43.4153 -4.85364 43.6835C-5.3379 45.4198 -5.82216 47.1561 -6.30641 48.8924C-6.54007 50.0923 -6.64843 51.0241 -5.31076 51.6607C-5.77134 49.147 -5.03649 46.8744 -4.56917 44.4745C-4.33551 43.2745 -3.54984 42.9928 -2.63887 42.443C-2.24604 42.3022 -1.85321 42.1613 -1.71097 42.5568C-1.56873 42.9523 -1.69403 43.2205 -2.08687 43.3613C-2.605 43.7703 -2.99783 43.9111 -2.9809 44.5748C-4.34224 48.1882 -4.91792 51.5199 -3.10272 55.3339C-2.85212 54.7976 -2.72682 54.5294 -2.60153 54.2613C-2.00891 51.5932 -0.471449 49.7025 1.60108 48.0666C1.99392 47.9257 2.11921 47.6576 2.65428 47.9122C2.79652 48.3077 2.67122 48.5758 2.27839 48.7167C2.02779 49.253 1.63496 49.3938 1.11682 49.8028C-0.562872 51.298 -1.43996 53.1751 -1.78198 55.3069C-1.89034 56.2387 -2.14094 56.775 -2.2493 57.7068C-2.6252 58.5113 -2.48296 58.9068 -1.80565 59.5569C-1.68035 59.2887 -1.68035 59.2887 -1.55505 59.0206C-1.1961 57.5524 -0.444306 55.9435 0.182187 54.6027C0.432785 54.0664 0.82562 53.9255 1.09315 54.0529C1.62822 54.3075 1.37763 54.8438 1.25233 55.112C1.00173 55.6483 0.751135 56.1846 0.500539 56.7209C-0.251254 58.3299 -0.877749 59.6707 -0.826934 61.6616C-0.701637 61.3935 -0.701635 61.3935 -0.576336 61.1253C-0.125955 58.0617 2.33941 56.2849 4.00217 54.1261C4.12747 53.858 4.6456 53.449 4.78784 53.8445C5.32291 54.0991 4.80477 54.5081 4.67947 54.7763C4.17828 55.8489 3.40955 56.7942 2.37329 57.6122C0.050159 59.7845 0.260149 62.8346 0.202601 65.7573C0.578497 64.9528 0.686857 64.021 0.937455 63.4847C1.42171 61.7484 2.44104 60.2668 3.19283 58.6578C3.44343 58.1215 3.96156 57.7125 4.49663 57.9671C5.29924 58.3491 4.38827 58.899 4.26297 59.1671C2.47491 61.5941 1.757 64.5303 1.03908 67.4666C0.913783 67.7347 0.663185 68.271 1.07296 68.7938C1.44885 67.9894 1.55721 67.0576 1.66558 66.1258C1.99066 63.3303 3.38588 61.0442 4.92334 59.1536C5.44147 58.7446 5.81737 57.9401 6.22714 58.4629C6.90445 59.1131 5.99348 59.6629 5.74289 60.1992C4.20542 62.0898 3.20303 64.2351 2.73572 66.635C2.50206 67.835 3.071 69.4169 1.37437 70.2484L1.51661 70.6439C1.80108 71.4349 2.08555 72.2259 2.63756 73.1442C2.76286 72.876 2.76286 72.876 2.88816 72.6078C2.8204 69.9533 4.21563 67.6671 5.34332 65.2537C5.59391 64.7174 6.11205 64.3084 6.50488 64.1676C6.63018 63.8994 7.02302 63.7586 7.16525 64.154C7.43279 64.2814 7.30749 64.5495 7.18219 64.8177C6.53876 65.4948 6.28816 66.0312 5.91226 66.8356C4.90987 68.9809 4.03278 70.858 3.69076 72.9898C3.7077 73.6535 3.4571 74.1898 3.74158 74.9807C5.13007 77.6083 7.55482 79.4178 8.94332 82.0454C9.35309 82.5682 9.37002 83.2318 10.1726 83.6138C10.281 82.682 10.3894 81.7502 10.3724 81.0866C10.1963 79.3638 10.6806 77.6275 11.4323 76.0185C11.6829 75.4822 11.8082 75.2141 12.3433 75.4687C12.8784 75.7234 12.3603 76.1323 12.5025 76.5278C11.8929 78.5323 11.6762 80.3959 11.4595 82.2595C11.4764 82.9231 11.9031 84.1096 10.7246 84.5321C10.3318 84.6729 10.5993 84.8003 10.5993 84.8003C11.5611 86.2413 12.5229 87.6824 14.1281 88.4464C13.7928 85.6645 14.5277 83.3919 15.6554 80.9784C15.7807 80.7103 16.0313 80.174 16.5663 80.4286C16.8339 80.5559 16.9761 80.9514 16.7255 81.4877C16.4749 82.0241 16.2243 82.5604 15.9737 83.0967C15.0966 84.9738 15.0221 87.2329 15.3405 89.3512C15.4997 90.4103 16.9626 90.7787 17.5146 91.697C17.7822 91.8244 17.7822 91.8243 17.9244 92.2198C17.9244 92.2198 17.7991 92.488 18.192 92.3472L18.3173 92.079C17.8567 89.5653 18.1987 87.4335 19.3264 85.0201C19.577 84.4837 19.4178 83.4246 20.2204 83.8066C20.7555 84.0612 20.3796 84.8657 20.129 85.402C19.3941 87.6746 18.9268 90.0746 19.3874 92.5883C19.5296 92.9838 19.0115 93.3928 19.4213 93.9156C20.7928 95.8795 22.4319 97.9707 24.5722 98.9893C25.1073 99.2439 25.5001 99.1031 25.7507 98.5668C26.77 97.0852 28.0569 95.7308 29.3437 94.3765C30.1125 93.4312 31.0234 92.8814 32.0597 92.0634C32.4525 91.9226 32.8454 91.7817 32.9876 92.1772C33.3974 92.7 32.737 92.7135 32.6117 92.9817C31.826 93.2633 31.1826 93.9405 30.4139 94.8858C31.3418 94.9996 32.1275 94.718 32.6456 94.309C33.8072 93.2228 35.111 92.5321 36.1472 91.7141C36.54 91.5733 37.0582 91.1643 37.2004 91.5598C37.3427 91.9553 37.3427 91.9553 37.7355 91.8144C38.1283 91.6736 38.3789 91.1373 38.914 91.3919C39.3068 91.2511 39.5744 91.3784 39.7166 91.7739C39.8588 92.1694 39.466 92.3102 39.0732 92.4511C38.1453 92.3372 37.7694 93.1417 37.2512 93.5507C37.1259 93.8189 36.4656 93.8324 36.8753 94.3552C37.1429 94.4825 37.8202 95.1327 38.0708 94.5963C38.1961 94.3282 38.4467 93.7919 38.8395 93.651C39.4829 92.9739 39.8588 92.1694 40.6445 91.8877C41.1626 91.4787 41.4302 91.606 41.8399 92.1288C41.9822 92.5243 42.1244 92.9198 41.7316 93.0607C40.1433 92.9604 39.6591 94.6966 38.6228 95.5146C39.6929 96.0239 40.6378 96.8014 41.3151 97.4515C41.7249 97.9743 42.1177 97.8335 42.3852 97.9608C43.9735 98.0611 43.9735 98.0611 45.3857 96.4386C44.8506 96.184 44.6 96.7203 44.0819 97.1293C43.689 97.2701 43.4384 97.8065 43.2962 97.411C42.8864 96.8882 43.2792 96.7473 43.6721 96.6065C44.1902 96.1975 44.8336 95.5203 44.5492 94.7294C44.5492 94.7294 44.6745 94.4612 44.7998 94.193C45.7107 93.6432 45.8191 92.7114 46.4625 92.0343C47.2313 91.0889 48 90.1436 49.0363 89.3256C49.4291 89.1848 49.9472 88.7758 50.357 89.2986C50.7668 89.8214 50.3739 89.9622 49.8558 90.3712C49.3207 90.1166 48.552 91.0619 47.8002 92.6709C48.5859 92.3892 49.2462 92.3757 49.6221 91.5712C50.1233 90.4986 50.8921 89.5532 51.9283 88.7353C52.4465 88.3263 53.073 86.9855 54.16 88.1584C54.16 88.1584 54.5529 88.0176 54.6782 87.7494C55.071 87.6086 55.3216 87.0722 55.7144 86.9314C56.1073 86.7906 56.3579 86.2543 56.7676 86.7771C57.3027 87.0317 56.7846 87.4407 56.6593 87.7089C56.3917 87.5815 56.2664 87.8497 56.1411 88.1179C56.2834 88.5133 56.534 87.977 56.534 87.977C56.9268 87.8362 57.4449 87.4272 57.8378 87.2863C58.2306 87.1455 58.7487 86.7365 58.891 87.132C59.3008 87.6548 58.5151 87.9365 58.1222 88.0773C57.2113 88.6272 56.175 89.4451 55.5316 90.1223C56.8693 90.7589 56.6017 90.6316 57.638 89.8136C58.6743 88.9956 59.8358 87.9095 60.8721 87.0915C61.2649 86.9506 61.7831 86.5416 61.9253 86.9371C62.3351 87.4599 61.5494 87.7416 61.1566 87.8824C59.8528 88.5731 58.8165 89.3911 58.0478 90.3364C58.3153 90.4637 58.5828 90.5911 58.7081 90.3229C60.0119 89.6322 61.0313 88.1506 62.2098 87.7281L62.3351 87.4599C61.9084 86.2735 62.142 85.0735 61.3225 84.0279C58.5624 79.4364 54.7661 75.663 52.0061 71.0715C50.4923 68.7122 48.4604 66.7618 47.7322 64.1207C47.4478 63.3297 47.1633 62.5388 46.486 61.8886C45.2567 60.3202 44.4202 58.611 43.5837 56.9017C42.7303 54.5288 41.6263 52.6922 40.38 50.4602C38.5818 47.3098 36.6582 44.4276 34.4671 41.4181C32.276 38.4086 29.6921 35.5399 25.9635 34.421C22.8953 33.2886 19.4682 33.6244 16.2916 33.4238C14.8456 33.7189 14.3275 34.1279 14.5205 36.5144C14.4122 37.4462 15.2148 37.8281 15.6245 38.3509ZM68.9863 104.72C68.4343 103.802 68.2751 102.743 67.5978 102.093C65.8334 100.27 64.1944 98.1785 62.43 96.3554C60.9331 94.6597 59.8291 92.8231 57.1707 92.2135C55.3149 91.9859 53.8519 91.6174 52.2806 92.1808C50.7092 92.7441 49.4224 94.0985 47.7088 94.2663C48.5283 95.3119 49.3479 96.3575 49.6323 97.1485C50.628 99.9169 52.6599 101.867 54.0484 104.495C54.3329 105.286 55.1355 105.668 55.6706 105.922C56.2056 106.177 56.314 105.245 56.7068 105.104C59.4228 102.791 62.0473 102.074 65.3831 103.333C66.4532 103.843 67.398 104.62 68.9863 104.72ZM67.5944 91.6018C68.397 91.9838 69.0743 92.6339 69.8769 93.0159C72.0341 94.6981 73.155 97.1984 74.6688 99.5577C74.8111 99.9532 74.9533 100.349 75.4714 99.9397C78.5972 98.1494 81.7229 96.359 85.7021 96.9416C85.2923 96.4188 84.7572 96.1642 84.615 95.7687C82.9759 93.6774 82.1225 91.3045 79.9653 89.6223C77.3983 87.4173 73.5613 87.2302 70.5609 88.7524C69.2571 89.443 68.6306 90.7838 67.5944 91.6018ZM103.214 94.4585C102.929 93.6675 102.519 93.1447 102.11 92.6219C100.88 91.0535 99.7933 89.8806 98.4387 88.5803C97.3516 87.4074 96.0139 86.7708 94.6762 86.1341C92.5359 85.1155 90.2873 85.0288 87.9472 86.5374C86.5181 87.4963 86.3014 89.3599 87.656 90.6601C89.5457 92.215 91.4354 93.7699 92.8069 95.7338C93.359 96.6521 94.0193 96.6386 94.9303 96.0888C97.6463 93.7756 100.254 92.3943 103.214 94.4585ZM120.668 94.8981C120.258 94.3753 120.116 93.9798 119.581 93.7252C118.903 93.0751 118.226 92.4249 117.799 91.2385C117.373 90.052 116.804 88.4701 115.073 87.9743C114.806 87.847 114.538 87.7197 114.396 87.3242C112.364 85.3738 108.652 84.9186 106.312 86.4272C106.187 86.6954 105.919 86.568 106.062 86.9635C106.062 86.9635 106.079 87.6272 106.329 87.0909C106.455 86.8227 106.705 86.2864 106.597 87.2182C106.614 87.8818 106.631 88.5455 107.04 89.0683C107.735 90.382 108.947 91.2868 110.034 92.4598C110.711 93.1099 111.246 93.3645 112.157 92.8147C112.676 92.4057 113.603 92.5195 114.139 92.7742C116.279 93.7928 118.277 94.4159 120.668 94.8981ZM48.5081 110.053C46.2426 109.302 44.1361 109.611 41.9044 110.188C40.8512 110.342 39.815 111.16 39.3138 112.233C38.562 113.842 38.9718 114.365 40.4347 114.733C43.7535 115.329 46.2358 114.216 48.8265 112.171C50.3809 110.944 50.1133 110.817 48.5081 110.053ZM76.4332 101.381C76.8599 102.567 77.6625 102.949 78.7157 102.795C80.304 102.895 81.6248 102.868 82.9455 102.841C84.6591 102.673 85.8206 101.587 86.84 100.105C87.2159 99.301 86.9483 99.1737 86.4133 98.919C83.4704 97.5185 80.7375 99.168 78.2552 100.281C77.4695 100.563 77.3611 101.495 76.4332 101.381ZM68.1092 106.597C66.7716 105.961 65.9689 105.579 65.1663 105.197C62.7585 104.051 60.3846 104.232 58.1867 106.137C57.7939 106.277 57.2758 106.686 57.6856 107.209C57.8278 107.605 58.2376 108.127 58.8979 108.114C61.8069 108.187 64.699 107.597 68.1092 106.597ZM96.1427 96.9936C97.6226 98.0257 100.389 97.7034 101.944 96.4765C102.462 96.0675 102.32 95.672 101.91 95.1492C100.037 94.2579 97.0198 95.1164 96.1427 96.9936ZM81.2758 84.018C80.2395 84.836 79.5961 85.5131 78.5598 86.3311C79.2371 86.9813 80.0397 87.3632 80.4495 87.886C81.1268 88.5362 81.5196 88.3953 81.628 87.4635C81.7364 86.5317 81.5772 85.4726 81.2758 84.018ZM117.525 96.0248C116.187 95.3882 114.724 95.0197 113.404 95.0468C113.011 95.1876 112.476 94.933 112.493 95.5966C112.367 95.8648 112.777 96.3876 113.045 96.5149C113.58 96.7695 114.115 97.0242 114.901 96.7425C115.419 96.3335 116.472 96.1792 117.525 96.0248ZM60.1881 91.355C61.9355 92.5144 62.4198 90.7781 63.3307 90.2283C63.7236 90.0875 63.5813 89.692 63.4391 89.2965C63.2969 88.901 62.904 89.0418 62.7787 89.31C61.8677 89.8598 61.099 90.8052 60.1881 91.355ZM82.6067 89.5683C83.4602 91.9412 84.7301 89.9232 85.658 90.037C84.8384 88.9914 83.4093 89.9502 82.6067 89.5683ZM94.6085 83.4796C95.2688 83.466 95.428 84.5252 95.8039 83.7207C96.0545 83.1844 96.5726 82.7754 96.6979 82.5072C96.8232 82.2391 97.2161 82.0982 96.9485 81.9709C96.8063 81.5754 96.4135 81.7163 96.2882 81.9844C95.6447 82.6616 95.1266 83.0706 94.6085 83.4796ZM96.0884 84.5117C96.3559 84.639 96.6235 84.7663 96.891 84.8936C97.4261 85.1483 97.6767 84.612 97.9273 84.0756C98.0526 83.8075 97.9103 83.412 97.6428 83.2847C97.1077 83.03 96.9824 83.2982 96.8571 83.5663C96.9994 83.9618 96.6065 84.1027 96.0884 84.5117ZM79.1694 84.3267C78.526 85.0038 77.615 85.5537 76.9716 86.2308L77.2391 86.3581C77.8825 85.681 78.7935 85.1312 79.1694 84.3267ZM34.752 94.0003C36.0727 93.9732 36.4486 93.1688 36.8245 92.3643C36.1811 93.0414 35.663 93.4504 34.752 94.0003ZM37.3427 91.9553C37.3427 91.9553 37.2174 92.2234 37.3427 91.9553C37.2174 92.2234 37.2174 92.2234 37.2174 92.2234C37.2174 92.2234 37.2174 92.2234 37.3427 91.9553C37.4849 92.3508 37.2174 92.2234 37.3427 91.9553ZM77.7366 48.8989C77.7366 48.8989 77.6113 49.1671 77.7366 48.8989C77.6113 49.1671 77.6113 49.1671 77.7366 48.8989C77.6113 49.1671 77.7366 48.8989 77.7366 48.8989ZM-6.84148 48.6377C-6.84148 48.6377 -7.23432 48.7785 -6.84148 48.6377C-7.23432 48.7785 -6.96678 48.9059 -6.84148 48.6377C-6.96678 48.9059 -6.96678 48.9059 -6.84148 48.6377C-6.96678 48.9059 -6.96678 48.9059 -6.84148 48.6377ZM11.3511 83.1913C11.3511 83.1913 11.2089 82.7958 11.3511 83.1913C11.2089 82.7958 11.0836 83.064 11.3511 83.1913C11.0836 83.064 11.0836 83.064 11.3511 83.1913Z" fill="#040404"/>
<path d="M81.0824 84.2075C81.2421 85.2628 81.6706 86.445 81.4355 87.6405C81.3264 88.5689 80.9315 88.7091 80.251 88.0611C79.5704 87.4131 79.0327 87.1592 78.3522 86.5113C79.2679 85.9637 80.0407 85.0221 81.0824 84.2075Z" fill="#040404"/>
<path d="M112.651 84.7715C113.297 84.0964 114.085 83.8157 114.731 83.1406C115.016 83.9295 116.09 84.4378 115.05 85.2533C114.924 85.5207 115.192 85.6477 115.192 85.6477C115.855 85.6345 115.998 86.0289 115.478 86.4367C114.958 86.8444 114.689 86.7173 114.547 86.3229C114.136 85.8013 113.725 85.2798 112.651 84.7715C112.92 84.8986 112.651 84.7715 112.651 84.7715Z" fill="#040404"/>
<path d="M59.9368 91.3545C60.8536 90.8073 61.6273 89.8662 62.5441 89.319C62.6703 89.052 63.0656 88.9119 63.2086 89.3057C63.3517 89.6996 63.6209 89.8265 63.0994 90.2336C62.1826 90.7808 61.6949 92.5095 59.9368 91.3545Z" fill="#040404"/>
<path d="M82.3509 89.7553C83.5469 89.9964 84.7092 88.9109 85.4037 90.224C84.4753 90.1102 83.2046 92.127 82.3509 89.7553Z" fill="#040404"/>
<path d="M94.4293 83.8006C94.9515 83.3939 95.5999 82.7205 96.122 82.3138C96.2483 82.0471 96.6442 81.9072 96.7876 82.3008C97.0573 82.4276 96.931 82.6944 96.5351 82.8343C96.2826 83.3678 95.7605 83.7745 95.6342 84.0413C95.2555 84.8415 94.699 83.9275 94.4293 83.8006Z" fill="#040404"/>
<path d="M94.9384 82.0585C94.6858 82.592 94.1636 82.9987 94.0374 83.2654C93.6586 84.0657 93.1192 83.812 92.5798 83.5583C93.2283 82.8849 93.6071 82.0847 94.9384 82.0585C94.6687 81.9317 94.9384 82.0585 94.9384 82.0585Z" fill="#040404"/>
<path d="M95.8929 84.8372C96.2875 84.6971 96.4133 84.4299 96.8079 84.2899C97.2025 84.1498 97.1854 83.4884 97.597 84.0097C97.8658 84.1367 98.0087 84.531 97.8828 84.7981C97.757 85.0653 97.5053 85.5996 96.8421 85.6126C96.6991 85.2184 96.4304 85.0913 95.8929 84.8372Z" fill="#040404"/>
<path d="M78.9954 84.4978C78.489 85.5637 77.6946 85.8434 77.0442 86.5163L76.7737 86.3896C77.5507 85.4503 78.0745 85.044 78.9954 84.4978Z" fill="#040404"/>
<path d="M34.4893 93.7679C35.4093 93.2216 35.9325 92.8152 36.5822 92.1422C36.2028 92.9419 35.8233 93.7416 34.4893 93.7679Z" fill="#040404"/>
<path d="M55.4146 88.4828C55.0346 89.2822 54.5107 89.6885 53.7161 89.9682C54.3667 89.2954 54.7466 88.496 55.4146 88.4828Z" fill="#040404"/>
<path d="M31.453 61.4537C31.3275 61.7208 31.8649 61.9754 31.4707 62.1151C31.4707 62.1151 31.202 61.9878 31.0588 61.5934C31.3275 61.7208 31.3275 61.7208 31.453 61.4537Z" fill="#040404"/>
<path d="M55.4166 88.4903C55.2725 88.0968 55.5428 88.2238 55.669 87.9573C55.813 88.3508 55.813 88.3508 55.4166 88.4903Z" fill="#040404"/>
<path d="M56.4609 87.6826C56.4609 87.6826 56.2083 88.2158 56.0651 87.8226C56.1914 87.556 56.1914 87.556 56.4609 87.6826C56.5872 87.416 56.4609 87.6826 56.4609 87.6826Z" fill="#040404"/>
<path d="M37.1026 91.748C36.9762 92.014 37.2489 92.1417 37.1026 91.748C36.9762 92.014 36.9762 92.014 36.9762 92.014C36.9762 92.014 36.9762 92.014 37.1026 91.748C36.9762 92.014 37.1026 91.748 37.1026 91.748Z" fill="#040404"/>
<path d="M16.3907 38.4039C16.3907 38.4039 16.2646 38.6717 16.3907 38.4039C15.9969 38.5451 15.9969 38.5451 16.3907 38.4039C16.123 38.2773 16.123 38.2773 16.3907 38.4039Z" fill="#040404"/>
<path d="M23.6353 47.8214L23.5089 48.0874C23.5089 48.0874 23.2362 47.9597 23.6353 47.8214C23.3626 47.6937 23.6353 47.8214 23.6353 47.8214Z" fill="#040404"/>
<path d="M34.0292 66.9658L33.9023 67.2334C33.508 67.3756 33.6349 67.1079 34.0292 66.9658C33.6349 67.1079 34.0292 66.9658 34.0292 66.9658Z" fill="#040404"/>
<path d="M94.6721 81.9412C94.7982 81.6734 94.7982 81.6734 94.6721 81.9412C95.0658 81.8 94.9398 82.0679 94.6721 81.9412C94.9398 82.0679 94.6721 81.9412 94.6721 81.9412Z" fill="#040404"/>
<path d="M76.4191 46.5178L76.2924 46.786C76.0254 46.6602 76.0254 46.6602 76.4191 46.5178C76.0254 46.6602 76.0254 46.6602 76.4191 46.5178Z" fill="#040404"/>
<path d="M29.7079 58.9685C29.8495 59.363 29.8495 59.363 29.7079 58.9685C29.8495 59.363 29.5818 59.2364 29.7079 58.9685C29.5818 59.2364 29.5818 59.2364 29.7079 58.9685Z" fill="#040404"/>
<path d="M112.798 85.1513C112.53 85.0247 112.53 85.0247 112.798 85.1513C112.656 84.7568 112.656 84.7568 112.798 85.1513C112.656 84.7568 112.924 84.8835 112.798 85.1513Z" fill="#040404"/>
<path d="M11.258 82.8218C10.9891 82.6939 10.9891 82.6939 11.258 82.8218C10.9891 82.6939 11.1138 82.4274 11.258 82.8218C11.1138 82.4274 11.258 82.8218 11.258 82.8218Z" fill="#040404"/>
<path d="M89.456 65.6318L89.3291 65.8994C88.9347 66.0415 89.0616 65.7739 89.456 65.6318C89.0616 65.7739 89.0616 65.7739 89.456 65.6318Z" fill="#040404"/>
<path d="M18.8757 90.7801C18.8757 90.7801 18.7496 91.0479 18.8757 90.7801C18.4819 90.9213 18.4819 90.9213 18.8757 90.7801C18.608 90.6535 18.608 90.6535 18.8757 90.7801Z" fill="#040404"/>
<path d="M90.3353 83.4437C90.3353 83.4437 90.2106 83.7102 90.3353 83.4437C90.0663 83.3158 90.0663 83.3158 90.3353 83.4437Z" fill="#040404"/>
<path d="M21.6547 90.4924C22.0172 89.0325 23.0463 87.5592 23.4089 86.0993C23.5354 85.8326 23.5184 85.1727 24.0585 85.4259C24.5986 85.6792 24.4721 85.9459 24.3456 86.2125C23.966 87.0125 23.983 87.6724 23.6035 88.4724C22.8444 90.0724 22.7519 91.6589 22.9295 93.3721C23.0731 93.7654 23.3602 94.552 22.6935 94.5654C21.9004 94.8454 22.2799 94.0454 22.1364 93.6522C21.9758 92.5989 21.9418 91.279 20.8615 90.7724C20.5915 90.6458 20.4479 90.2525 20.3044 89.8592C19.7302 88.286 21.3749 84.8195 22.8177 83.8661C23.2142 83.7261 23.3408 83.4595 23.8809 83.7127C24.0244 84.106 23.8979 84.3727 23.7714 84.6394C22.2191 86.5193 21.7301 88.2459 21.6547 90.4924Z" fill="#040404"/>
<path d="M14.1567 75.4032C14.6651 74.3381 15.1734 73.2729 16.0978 72.7266C16.4964 72.5866 17.0222 72.1802 17.1666 72.5728C17.5827 73.0916 17.184 73.2316 16.9298 73.7642C14.9887 76.4408 14.2609 79.3563 14.0762 82.5242C14.2207 82.9167 14.2381 83.5756 13.5679 83.5893C12.8977 83.6031 12.6087 82.818 12.8629 82.2854C13.065 79.7763 13.14 77.5335 14.1567 75.4032Z" fill="#040404"/>
<path d="M9.50856 72.1632C10.5256 70.0331 11.9763 69.0805 12.8837 67.8755C13.0108 67.6092 13.2825 67.7354 13.5541 67.8617C13.8258 67.9879 13.9703 68.3804 13.8432 68.6467C13.4618 69.4454 12.9359 69.8517 12.5545 70.6505C10.8669 72.7944 9.99438 75.317 10.064 77.952C9.93686 78.2183 10.0814 78.6108 9.80973 78.4846C9.41092 78.6246 9.13925 78.4983 8.99471 78.1058C8.57851 77.5871 8.68824 76.6621 8.94251 76.1296C8.76316 74.4196 9.39883 73.0882 9.50856 72.1632Z" fill="#040404"/>
<path d="M11.1311 62.7432C11.5491 63.2611 11.4216 63.5272 10.8937 63.9334C9.45537 65.5439 8.56259 67.4063 7.54228 69.5349C7.03212 70.5991 6.79475 71.7893 6.55738 72.9795C6.42984 73.2456 6.57508 73.6376 5.90198 73.6518C5.6292 73.5258 5.48396 73.1338 5.61149 72.8677C6.05084 69.1711 7.43606 65.5863 10.3304 63.0234C10.458 62.7573 10.8583 62.6172 11.1311 62.7432Z" fill="#040404"/>
<path d="M8.68651 69.7891C9.06843 68.9905 9.0509 68.3321 9.97709 67.7858C10.3765 67.6457 10.5038 67.3796 10.6487 67.7719C10.9208 67.898 10.7935 68.1642 10.6662 68.4303C9.12101 70.9659 8.2474 73.4876 7.91807 76.2616C7.79076 76.5277 7.93559 76.92 7.26402 76.934C6.99188 76.8078 6.71974 76.6817 6.84705 76.4156C6.68469 75.3648 6.79447 74.4401 7.17638 73.6416C7.81291 72.3107 8.04999 71.1199 8.68651 69.7891Z" fill="#040404"/>
<path d="M29.4591 91.9587C28.8077 92.6316 28.5712 93.8238 27.6489 94.3702C27.1243 94.7766 26.7266 94.9166 26.7438 95.5759C26.6169 95.8424 26.4901 96.1088 26.0924 96.2488C25.8215 96.1224 25.6774 95.7295 25.8043 95.4631C26.0408 94.2709 26.4213 93.4716 26.6578 92.2794C26.9114 91.7466 27.0383 91.4801 27.292 90.9473C27.4188 90.6808 27.4188 90.6808 27.5457 90.4144C27.9434 90.2744 28.0874 90.6673 27.9606 90.9337C27.9778 91.593 28.3755 91.453 28.6292 90.9201C28.7561 90.6537 28.7388 89.9944 29.2806 90.2473C29.9665 90.893 29.9837 91.5523 29.4591 91.9587Z" fill="#040404"/>
<path d="M18.4579 80.7587C18.8569 80.6186 18.9667 79.6938 19.4929 79.2875C19.892 79.1475 20.0192 78.8812 20.1638 79.2736C20.4357 79.3998 20.3085 79.6661 20.1813 79.9323C18.8918 81.9359 17.8742 84.0657 18.0712 86.4341C17.944 86.7003 17.8168 86.9666 17.8168 86.9666C17.4178 87.1066 17.2731 86.7142 17.4003 86.448C16.9664 85.2707 17.3305 83.8134 17.5675 82.6223C17.8219 82.0898 18.0763 81.5573 18.4579 80.7587Z" fill="#040404"/>
<path d="M27.2938 88.2925C26.5311 89.8902 25.2252 91.2354 25.2774 93.2118C25.1503 93.478 25.1503 93.478 24.7516 93.6181C24.4799 93.4918 24.2083 93.3656 24.3354 93.0993C24.0291 91.6554 24.393 90.1978 25.1731 89.2589C25.4273 88.7264 26.0802 88.0538 26.6061 87.6475C26.7332 87.3812 27.259 86.9749 27.8022 87.2274C28.3454 87.4799 27.8196 87.8862 27.6925 88.1525C27.4209 88.0263 27.2938 88.2925 27.2938 88.2925Z" fill="#040404"/>
<path d="M41.3795 95.1394C41.1093 95.0128 40.9656 94.6196 41.0922 94.353C41.8688 93.4132 42.9157 92.6 43.6924 91.6602C43.819 91.3936 44.0892 91.5202 44.3595 91.6468C44.6297 91.7733 44.5031 92.0399 44.3765 92.3065C43.5999 93.2464 42.8233 94.1862 41.903 94.7328C41.6498 95.266 41.3795 95.1394 41.3795 95.1394Z" fill="#040404"/>
<path d="M61.8154 63.0574C61.8508 64.3736 61.3407 65.4378 60.958 66.236C60.3381 68.2244 59.4453 70.0868 58.5525 71.9492C58.4249 72.2153 58.1699 72.7474 57.6243 72.4955C57.0787 72.2435 57.6066 71.8374 57.4613 71.4454C58.2089 69.1909 59.2292 67.0625 59.9767 64.808C60.3594 64.0099 60.8872 63.6037 61.8154 63.0574Z" fill="#040404"/>
<path d="M59.8774 75.2445C60.515 73.9142 60.8798 72.4578 61.645 70.8614C62.0275 70.0632 62.2825 69.531 63.2105 68.9848C63.3381 68.7187 63.7383 68.5786 64.011 68.7046C64.2837 68.8306 64.1562 69.0966 64.0287 69.3627C62.5906 70.9733 62.0983 72.6957 61.4784 74.6841C61.2233 75.2163 60.9683 75.7484 60.568 75.8885C60.1678 76.0286 60.1678 76.0286 59.8951 75.9026C59.2221 75.9168 59.3496 75.6507 59.8774 75.2445Z" fill="#040404"/>
<path d="M54.9321 59.7131C54.5675 61.1697 53.803 62.7665 53.4384 64.2231C53.311 64.4893 53.3286 65.1476 52.6563 65.1616C52.1115 64.9095 52.6387 64.5033 52.4937 64.1111C52.8231 61.3379 53.8424 59.2089 54.9891 56.8138C55.1165 56.5476 55.3713 56.0154 55.7888 56.5336C56.3336 56.7857 56.2062 57.0518 55.9514 57.5841C55.6966 58.1163 55.3143 58.9147 54.9321 59.7131Z" fill="#040404"/>
<path d="M66.1316 78.5847C65.6212 79.6488 65.1107 80.7129 64.6002 81.777C64.4726 82.043 64.2174 82.575 63.6714 82.3232C63.1254 82.0714 63.6536 81.6653 63.7812 81.3992C64.4016 79.4112 65.1495 77.1571 66.5888 75.5467C66.7164 75.2807 67.0993 74.4826 67.5177 75.0004C68.0637 75.2522 67.5354 75.6584 67.2802 76.1904C66.8973 76.9885 66.5145 77.7866 66.1316 78.5847Z" fill="#040404"/>
<path d="M63.7866 78.7495C63.6596 79.0158 63.4054 79.5483 62.8624 79.2958C62.5909 79.1695 62.845 78.6369 62.7006 78.2444C63.3186 76.254 64.0637 73.9974 64.4102 71.8808C64.6644 71.3482 64.7914 71.0819 65.3345 71.3345C65.8775 71.587 65.3518 71.9933 65.4963 72.3859C65.1498 74.5025 64.4047 76.7591 63.7866 78.7495Z" fill="#040404"/>
<path d="M57.5739 67.8688C57.3193 68.4012 57.1921 68.6674 56.92 68.5412C56.6479 68.4151 56.3759 68.2889 56.5031 68.0228C56.85 65.9072 57.4688 63.9177 58.4871 61.7882C58.6144 61.522 59.141 61.1158 59.4131 61.2419C59.9572 61.4942 59.4306 61.9004 59.3033 62.1666C58.6844 64.1561 58.0655 66.1455 57.5739 67.8688Z" fill="#040404"/>
<path d="M46.3248 47.0155C45.8151 48.08 45.1781 49.4106 45.2133 50.7272C45.0859 50.9933 45.2309 51.3855 44.831 51.5256C44.4312 51.6656 44.4136 51.0073 44.541 50.7412C44.6156 48.5002 45.5075 46.6374 46.6718 44.9006C46.7992 44.6345 47.199 44.4944 47.4714 44.6204C47.7439 44.7465 47.6165 45.0126 47.4891 45.2787C46.8344 45.9511 46.5796 46.4833 46.3248 47.0155Z" fill="#040404"/>
<path d="M55.837 66.0412C55.7099 66.3075 55.5829 66.5738 55.1843 66.7139C54.9129 66.5876 54.7684 66.195 54.7684 66.195C55.1149 64.0783 55.4614 61.9616 56.3508 60.0974C56.4779 59.8311 56.6049 59.5648 56.8764 59.6911C57.4193 59.9437 57.1652 60.4763 57.0382 60.7426C56.5299 61.8078 56.2931 62.9993 56.0564 64.1908C56.0737 64.8497 56.0911 65.5086 55.837 66.0412Z" fill="#040404"/>
<path d="M50.3969 54.8825C50.0145 55.6809 49.6322 56.4792 48.8498 57.4176C48.7224 57.6837 48.5949 57.9498 48.3224 57.8238C48.0499 57.6977 48.1773 57.4316 48.3048 57.1655C48.7969 55.4429 49.8342 53.9723 50.1989 52.5157C50.3263 52.2496 50.5989 52.3756 50.7263 52.1095C50.9989 52.2356 51.144 52.6277 51.0165 52.8938C51.0341 53.552 50.3792 54.2243 50.3969 54.8825Z" fill="#040404"/>
<path d="M47.9113 49.1126C48.0386 48.8465 48.4381 48.7064 48.5655 48.4402L48.965 48.3002C49.2373 48.4263 49.1099 48.6924 49.1099 48.6924C48.4908 50.6817 47.7268 52.2786 47.1077 54.2679C46.9803 54.534 46.9803 54.534 46.5808 54.6741C46.3086 54.548 46.0364 54.4219 46.1637 54.1557C46.2735 53.2311 46.6555 52.4326 46.6379 51.7742C47.1473 50.7096 47.8015 50.0372 47.9113 49.1126Z" fill="#040404"/>
<path d="M39.9769 45.2571C40.341 43.7997 40.8498 42.7347 41.4857 41.4036C41.6129 41.1373 41.8673 40.6049 42.2663 40.4648C42.6653 40.3248 42.6653 40.3248 42.9371 40.451C43.2089 40.5772 43.0817 40.8434 42.9545 41.1097C42.3186 42.4408 41.5555 44.0382 41.1913 45.4956C40.538 46.1681 40.2487 45.3833 39.9769 45.2571Z" fill="#040404"/>
<path d="M68.5382 81.7212C67.7564 82.6597 67.2469 83.7242 66.7374 84.7888C66.61 85.0549 66.3552 85.5872 66.0829 85.4611C65.5383 85.209 65.6657 84.9429 65.9204 84.4106C66.4299 83.346 67.0668 82.0153 67.5763 80.9508C67.831 80.4185 68.0857 79.8862 68.6304 80.1384C69.32 80.7827 68.7929 81.1889 68.5382 81.7212Z" fill="#040404"/>
<path d="M42.8441 44.0299C43.2257 43.2312 43.4801 42.6988 44.1335 42.0263C44.5325 41.8862 44.6597 41.62 44.8044 42.0124C45.0762 42.1386 44.949 42.4048 44.8218 42.6711C43.914 43.876 43.0062 45.081 43.1857 46.7907C43.0585 47.057 42.9313 47.3232 42.6595 47.197C42.2604 47.337 42.1158 46.9446 42.243 46.6784C41.9537 45.8935 42.4625 44.8286 42.8441 44.0299Z" fill="#040404"/>
<path d="M52.4068 57.5011C52.0245 58.2993 51.7696 58.8315 51.5147 59.3636C51.3873 59.6297 51.2599 59.8958 50.9871 59.7697C50.7144 59.6435 50.8418 59.3774 50.9692 59.1114C51.2062 57.9209 51.8434 56.5906 52.4805 55.2602C52.6079 54.9941 52.7354 54.728 53.0081 54.8542C53.2809 54.9803 53.1535 55.2464 53.2988 55.6386C53.3167 56.2969 52.6616 56.9689 52.4068 57.5011Z" fill="#040404"/>
<path d="M65.4094 52.3394C66.1738 50.7426 66.6658 49.0198 67.5576 47.1569C67.685 46.8908 67.9398 46.3585 68.4846 46.6106C69.0294 46.8627 68.7746 47.395 68.6472 47.6611C68.0102 48.9918 67.6456 50.4484 66.6088 51.9192C66.354 52.4514 65.9542 52.5915 65.4094 52.3394Z" fill="#040404"/>
<path d="M69.1143 52.1474C68.8599 52.6799 68.4783 53.4786 68.2239 54.011C68.0967 54.2772 67.9695 54.5435 67.4258 54.2911C67.1539 54.1649 67.2811 53.8987 67.1365 53.5063C67.7725 52.1751 68.1366 50.7178 68.7727 49.3867C68.8999 49.1205 69.1543 48.588 69.698 48.8404C69.9699 48.9666 69.9873 49.6252 69.8601 49.8914C69.7504 50.8163 69.496 51.3488 69.1143 52.1474Z" fill="#040404"/>
<path d="M84.624 79.0226C84.4967 79.2887 84.3694 79.5548 84.2421 79.8209C84.1148 80.0871 83.8602 80.6193 83.4426 80.1008C82.8978 79.8484 83.4248 79.4423 83.5522 79.1762C84.0614 78.1117 84.2982 76.921 84.6802 76.1226C84.9348 75.5904 85.1894 75.0581 85.4618 75.1843C86.0067 75.4367 85.752 75.969 85.4974 76.5012C85.1155 77.2996 84.7336 78.098 84.624 79.0226Z" fill="#040404"/>
<path d="M65.1874 44.6668C64.807 45.4661 64.4265 46.2655 63.7753 46.9384C63.6485 47.2048 63.5217 47.4713 62.98 47.2184C62.7092 47.0919 62.836 46.8255 62.692 46.4326C63.1993 45.3668 63.3089 44.441 63.8161 43.3752C64.0698 42.8423 64.4674 42.7023 64.7382 42.8287C65.2798 43.0816 65.0262 43.6145 64.7726 44.1474C65.3142 44.4003 65.1874 44.6668 65.1874 44.6668Z" fill="#040404"/>
<path d="M82.8259 84.7319C83.4635 83.4016 84.101 82.0714 84.7385 80.7412C84.866 80.4752 84.9935 80.2091 85.2665 80.3352C85.5394 80.4613 85.6849 80.8534 85.5574 81.1194C84.9198 82.4497 84.4098 83.5138 83.4994 84.718C83.6448 85.1101 83.2264 84.5919 82.8259 84.7319Z" fill="#040404"/>
<path d="M76.5907 69.8887C76.9546 68.4311 77.4457 66.7072 77.8096 65.2495C77.9367 64.9832 78.0638 64.717 78.4625 64.5769C78.7341 64.7032 78.8786 65.0957 78.7515 65.362C78.3876 66.8197 78.0236 68.2773 77.3881 69.6087C77.4055 70.2675 76.8623 70.015 76.5907 69.8887Z" fill="#040404"/>
<path d="M76.0167 65.6631C75.8896 65.9294 75.7624 66.1957 75.3637 66.3357C75.2366 66.602 74.965 66.4757 74.965 66.4757C74.6935 66.3494 74.6935 66.3494 74.8206 66.0832C75.1845 64.6255 75.6929 63.5604 76.0568 62.1028C76.184 61.8365 76.7098 61.4302 76.9814 61.5565C77.5245 61.809 76.9987 62.2153 76.8716 62.4815C76.6348 63.6729 76.5251 64.598 76.0167 65.6631Z" fill="#040404"/>
<path d="M81.0097 68.7726C81.5512 69.0255 81.6952 69.4184 81.8392 69.8114C81.476 71.2701 80.9688 72.336 80.8764 73.9212C80.7496 74.1877 80.8935 74.5806 80.2252 74.5941C79.9544 74.4677 79.8105 74.0747 79.9373 73.8083C79.7589 72.0966 80.5197 70.4978 81.0097 68.7726Z" fill="#040404"/>
<path d="M79.2698 66.2859C79.8114 66.5388 80.2263 67.0581 79.9726 67.591C79.7362 68.7833 79.3558 69.5826 79.1193 70.7749C78.9925 71.0414 78.8657 71.3078 78.5949 71.1813C78.0533 70.9284 78.4509 70.7884 78.3069 70.3955C78.5433 69.2033 78.9066 67.7446 79.2698 66.2859Z" fill="#040404"/>
<path d="M102.009 85.8099C101.882 86.0761 101.899 86.7345 101.355 86.4823C100.81 86.2301 101.065 85.6978 101.192 85.4317C101.412 83.5827 102.176 81.9858 103.068 80.1228C103.195 79.8566 103.45 79.3243 103.994 79.5765C104.539 79.8287 104.012 80.2349 103.884 80.501C103.393 82.224 102.901 83.9469 102.009 85.8099Z" fill="#040404"/>
<path d="M99.1504 78.8454C98.6243 79.2517 98.6592 80.5691 97.8439 80.1904C97.0286 79.8118 97.809 78.873 98.0634 78.3405C98.572 77.2755 98.8089 76.0843 99.0458 74.8931C99.173 74.6269 99.3002 74.3606 99.4273 74.0944C99.5545 73.8281 99.9534 73.6881 100.225 73.8143C100.497 73.9405 100.37 74.2068 100.243 74.473C100.006 75.6642 99.9134 77.2479 99.1504 78.8454Z" fill="#040404"/>
<path d="M85.72 61.1979C85.8123 59.6142 86.8471 58.143 87.2111 56.6856C87.3383 56.4193 87.6101 56.5455 87.6101 56.5455C87.8819 56.6717 88.1536 56.7979 88.0264 57.0642C87.6624 58.5216 87.2983 59.979 86.3907 61.184C86.2635 61.4503 85.9917 61.3241 85.72 61.1979Z" fill="#040404"/>
</g>
<g opacity="0.1">
<path d="M33.2922 1145.4C39.6084 1143.28 44.7122 1145.06 48.0196 1151.34C50.9562 1148.85 54.0061 1146.11 57.9078 1147.92C62.2971 1149.95 66.896 1150.9 71.6082 1151.6C75.3622 1152.46 75.3347 1155.71 75.7777 1158.59C78.9306 1159.46 82.6674 1159.71 85.5937 1161.06C89.4953 1162.87 88.1695 1167.01 88.0286 1170.5C88.6297 1170.49 89.1174 1170.71 89.9623 1170.81C97.7141 1172.63 99.8708 1180.75 94.7463 1186.68C94.1624 1187.3 93.4652 1188.17 92.6375 1188.67C89.5875 1191.41 89.6218 1192.61 93.2968 1194.91C98.5654 1198.25 101.402 1204.91 100.128 1210.85C99.9012 1211.34 100.162 1212.05 100.406 1212.16C103.497 1215.08 102.511 1218.48 101.883 1221.75C101.254 1225.02 98.9186 1227.5 95.8343 1229.04C95.3638 1229.41 95.0066 1229.54 94.2922 1229.81C95.082 1236.41 93.0865 1238.15 86.4646 1242.2C81.9687 1244.86 75.2094 1244.1 71.6307 1240.96C70.1057 1242.33 68.2235 1243.83 66.829 1245.55C64.624 1248.39 60.5471 1248.87 57.116 1246.69C56.6283 1246.46 56.2368 1245.39 55.6358 1245.4C49.8863 1246.3 51.796 1241.54 50.8653 1238.44C45.8473 1239.67 41.5713 1237.39 37.0686 1235.6C33.5413 1234.26 31.2676 1234.69 29.4369 1237.99C26.5862 1243.5 24.5803 1249.1 21.7295 1254.6C18.992 1259.86 18.5454 1265.29 18.2293 1271.08C17.9133 1276.87 15.691 1279.1 9.66337 1278.68C1.34484 1278.08 -5.48304 1274.92 -11.5347 1269.44L-11.7785 1269.32C-13.0149 1268.15 -15.6011 1266.06 -15.3745 1265.58C-14.241 1263.13 -12.2626 1260.79 -10.2671 1259.04C-8.6288 1257.43 -5.75405 1256.98 -4.60343 1255.14C-2.64224 1252.19 -1.41261 1248.9 -0.670674 1245.39C0.586499 1238.85 1.24262 1232.33 2.2731 1226.28C0.208934 1225.61 -1.25418 1224.94 -2.83065 1224.5C-3.9194 1224.29 -5.00816 1224.08 -6.07976 1224.48C-12.0388 1226.46 -15.9233 1225.25 -19.3268 1219.81C-19.5707 1219.7 -19.9279 1219.83 -20.1717 1219.72C-26.0174 1221.46 -29.1875 1219.98 -31.7462 1214.64C-32.0072 1213.93 -32.3987 1212.85 -32.0587 1212.12C-30.0013 1208.33 -31.9074 1204.77 -32.8553 1201.07C-33.5078 1199.28 -32.1305 1196.95 -31.8248 1195.02C-31.6153 1193.93 -31.4057 1192.84 -31.6668 1192.12C-33.0852 1188.79 -31.907 1183.7 -28.9704 1181.2C-26.6177 1179.33 -24.5088 1177.34 -22.7743 1174.88C-19.4187 1170.2 -14.9846 1169.59 -10.0285 1170.4C-12.2987 1162.52 -10.4851 1158.62 -3.22782 1155.75C-3.32042 1148.29 3.0405 1143.52 10.3046 1145.12C11.1495 1145.21 12.4478 1144.33 13.0317 1143.71C17.9123 1137.66 24.1324 1136.4 30.0363 1140.92C31.3861 1141.84 32.0386 1143.63 33.2922 1145.4ZM74.0385 1232.58C73.4202 1231.99 73.1764 1231.88 72.9325 1231.77C72.1838 1230.82 71.4351 1229.88 70.6864 1228.94C71.8885 1228.91 73.3344 1228.98 74.406 1228.59C75.8348 1228.07 77.7513 1227.77 78.2047 1226.79C79.242 1225.2 79.3038 1223.15 79.9667 1221.08C80.0801 1220.84 79.2352 1220.74 79.1047 1220.38C78.2426 1219.69 77.3805 1218.99 76.2746 1218.18C77.2157 1217.43 78.1568 1216.68 79.2284 1216.28C82.1993 1214.99 82.4879 1212.45 82.7764 1209.92C83.065 1207.38 81.7152 1206.46 79.4072 1205.68C76.742 1205.04 76.5771 1203.48 78.8165 1201.85C79.287 1201.47 79.8881 1201.45 80.1148 1200.97C80.7949 1199.5 82.1893 1197.77 82.0245 1196.21C81.8768 1195.25 79.6821 1194.23 78.3324 1193.31C78.0885 1193.2 77.3741 1193.46 77.2436 1193.1C76.5121 1192.76 75.5367 1192.31 75.5195 1191.71C75.5023 1191.11 76.1996 1190.24 76.6701 1189.87C77.1407 1189.49 77.9684 1188.99 78.6828 1188.72C82.4815 1186.93 82.5605 1185.48 79.94 1182.18C78.4425 1180.3 76.8832 1180.47 75.0972 1181.12C71.2986 1182.92 71.2986 1182.92 69.863 1178.99C69.2104 1177.2 68.0702 1175.19 66.7204 1174.27C63.777 1172.31 59.8478 1173.75 57.3989 1176.47C55.5339 1178.57 53.4079 1179.96 51.1685 1181.59C50.698 1181.97 49.8531 1181.87 49.3654 1181.65C48.991 1181.18 48.8433 1180.22 48.8262 1179.62C49.5853 1176.7 50.5882 1173.9 51.2168 1170.63C52.1854 1166.63 49.8088 1163.45 45.9414 1162.84C41.5864 1162.01 41.0815 1161.18 42.5207 1156.8C42.8436 1155.47 43.1493 1153.53 42.5139 1152.35C40.965 1148.66 37.211 1147.81 33.9001 1149.83C33.0723 1150.34 31.6435 1150.86 30.7986 1150.77C30.3109 1150.54 29.545 1149 29.6412 1148.15C30.0088 1144.17 27.0997 1143.41 24.304 1142.41C21.0206 1141.18 18.2935 1142.59 16.8028 1145.16C16.0094 1146.87 15.7209 1149.41 14.6493 1149.8C13.2205 1150.33 11.2525 1148.82 9.43216 1148.27C6.27924 1147.4 3.92652 1149.28 1.81765 1151.27C0.0659865 1153.13 1.07572 1154.78 2.44266 1156.31C2.81702 1156.78 2.85134 1157.98 2.5113 1158.71C2.04076 1159.09 0.969166 1159.48 0.237607 1159.14C-2.07041 1158.37 -3.48205 1159.49 -4.76317 1160.98C-7.79596 1164.32 -7.57964 1167.68 -5.67351 1171.24C-4.14175 1174.32 -5.29236 1176.16 -8.78533 1176.03C-11.0762 1175.85 -13.4976 1175.32 -15.7884 1175.15C-16.8772 1174.94 -18.6632 1175.6 -18.8898 1176.09C-19.2574 1180.07 -22.4722 1181.25 -24.9383 1183.37C-27.1776 1185 -28.6683 1187.58 -27.2842 1189.7C-25.2819 1192.41 -26.8069 1193.78 -28.0708 1195.87C-28.7681 1196.73 -29.2214 1197.71 -29.431 1198.8C-29.2833 1199.76 -28.8746 1201.43 -28.1431 1201.77C-23.8671 1204.05 -23.8671 1204.05 -26.0378 1208.09C-26.2645 1208.58 -26.8484 1209.2 -26.7179 1209.56C-25.9348 1211.7 -25.3785 1214.33 -23.881 1216.21C-22.1397 1218.21 -20.7624 1215.88 -19.2374 1214.51C-17.8258 1213.39 -15.9093 1213.09 -14.3672 1212.32C-14.2023 1213.88 -14.0375 1215.44 -13.7593 1216.76C-13.3506 1218.43 -12.6981 1220.22 -11.9322 1221.76C-10.0329 1220.86 -8.00304 1220.32 -6.34756 1219.31C-5.16262 1218.67 -4.48255 1217.2 -3.42811 1216.21C-2.95757 1215.83 -2.24317 1215.57 -1.52877 1215.31C-1.26776 1216.03 -0.76289 1216.85 -0.859073 1217.7C-0.82475 1218.9 -1.03428 1219.99 -0.999954 1221.2C2.06716 1219.06 3.31396 1216.37 0.954453 1213.79C-2.15378 1210.27 -5.60204 1207.48 -8.93696 1204.45C-10.0429 1203.64 -11.3927 1202.72 -13.2748 1204.22C-13.8587 1204.84 -16.0534 1203.82 -17.1593 1203.01C-17.647 1202.78 -17.829 1200.62 -17.829 1200.62C-15.703 1199.23 -15.0744 1195.96 -11.5814 1196.1C-9.53443 1196.16 -8.1228 1195.03 -9.9946 1192.68C-11.2482 1190.91 -10.551 1190.05 -8.61729 1190.35C-6.92748 1190.54 -5.23768 1190.73 -3.06016 1191.15C-2.52776 1188.73 -1.99535 1186.3 -1.46295 1183.88C-1.2191 1183.99 -0.861902 1183.86 -0.618049 1183.97C-0.339873 1185.29 -0.305546 1186.49 0.0859767 1187.57C0.364153 1188.88 0.886181 1190.31 1.16436 1191.63C2.33214 1190.39 3.49992 1189.15 4.53718 1187.55C4.65053 1187.31 4.87722 1186.82 5.10391 1186.33C5.67064 1185.11 6.36787 1184.25 7.17845 1183.14C6.80409 1182.67 5.94203 1181.97 4.83611 1181.16C5.7772 1180.41 6.47443 1179.55 7.41552 1178.8C8.27759 1179.5 8.78245 1180.32 9.64452 1181.02C14.2881 1179.32 15.2635 1179.77 14.6692 1184.24C17.8222 1185.11 18.5641 1181.6 21.195 1181.04C20.7588 1182.62 20.192 1183.84 19.7558 1185.42C19.1101 1188.08 18.351 1191 18.3063 1193.65C18.3235 1194.25 20.2914 1195.76 20.762 1195.38C23.6196 1194.33 26.2161 1192.57 29.3004 1191.03C28.1773 1189.62 27.6553 1188.19 26.5494 1187.38C24.4509 1185.52 25.6015 1183.68 26.7521 1181.84C26.9788 1181.35 27.9371 1181.2 28.5381 1181.18C28.782 1181.29 29.4002 1181.88 29.4173 1182.48C29.6784 1183.19 29.3383 1183.93 29.3555 1184.53C33.1542 1182.73 34.7478 1183.77 34.9984 1188.34C40.9746 1186.95 40.0575 1192.76 42.0598 1195.47C42.156 1194.63 42.0255 1194.27 41.895 1193.91C41.5996 1191.99 42.0187 1189.81 44.4229 1189.74C46.5832 1189.56 46.5214 1191.61 46.6862 1193.17C46.9987 1195.69 47.9122 1198.19 44.9585 1200.08C44.6013 1200.21 44.6184 1200.81 44.749 1201.17C45.2881 1203.2 45.4701 1205.37 46.1398 1207.75C47.2114 1207.36 47.9258 1207.1 48.8841 1206.95C49.4851 1206.93 50.2167 1207.27 50.7044 1207.5C49.4748 1210.79 50.955 1212.07 53.9775 1212.58C53.9775 1212.58 54.2213 1212.69 54.108 1212.94C55.1005 1213.99 55.4027 1220.36 54.8359 1221.58C54.4959 1222.32 53.912 1222.94 53.3281 1223.56C54.4169 1223.76 55.2618 1223.86 56.3505 1224.07C56.5944 1224.18 57.0821 1224.41 57.8137 1224.75C56.8726 1225.5 56.0448 1226 55.7048 1226.74C55.2514 1227.71 55.1724 1229.16 55.7906 1229.75C58.655 1233.15 58.655 1233.15 55.9794 1236.36C55.7527 1236.85 55.526 1237.34 55.4127 1237.58C56.5357 1239 57.5283 1240.05 58.6514 1241.46C59.0086 1241.33 59.6096 1241.31 60.0802 1240.94C62.3196 1239.31 64.6723 1237.43 67.8424 1238.9C68.5739 1239.24 70.0027 1238.72 70.7 1237.85C71.2667 1236.63 72.5306 1234.55 74.0385 1232.58ZM54.5438 1232.43C51.8786 1231.79 49.5706 1231.01 47.5236 1230.95C43.7867 1230.7 40.6338 1229.83 37.9171 1227.39C34.2078 1223.88 34.4964 1221.35 39.1228 1219.04C41.4927 1217.77 44.1064 1216.6 46.5896 1215.09C45.3807 1210.67 42.688 1213.28 40.4143 1213.7C35.9802 1214.32 31.5634 1215.53 27.2427 1215.9C23.2792 1216.14 21.8951 1214.01 22.7503 1210.25C23.7018 1205.65 26.1164 1201.73 29.6369 1198.61C31.519 1197.11 33.4012 1195.61 35.2834 1194.11C35.1529 1193.75 35.2662 1193.51 35.1357 1193.15C33.5764 1193.32 31.8866 1193.12 30.7017 1193.76C27.9746 1195.17 25.378 1196.93 22.6509 1198.34C19.5667 1199.87 17.0148 1198.98 16.1974 1195.64C15.5277 1193.25 15.9296 1190.47 15.7305 1187.7C13.1786 1186.82 13.0034 1189.11 12.4538 1190.93C11.6157 1195.29 10.9081 1200.01 10.07 1204.37C9.9738 1205.21 9.03272 1205.97 8.57933 1206.94C7.60392 1206.49 6.38466 1205.92 5.87979 1205.1C3.48596 1201.31 1.33598 1197.64 -0.814 1193.97C-2.3733 1194.14 -3.9326 1194.31 -5.4919 1194.47C-6.51201 1196.67 -7.53212 1198.87 -8.66557 1201.31C-7.69016 1201.77 -6.58424 1202.58 -5.60883 1203.03C0.03411 1206.83 5.09316 1211.26 5.90016 1218.46C6.11647 1221.83 5.73174 1225.21 5.59086 1228.71C4.98623 1237.03 3.89389 1245.13 0.754539 1253.17C-0.361753 1256.22 -2.09626 1258.68 -5.06719 1259.97C-6.25214 1260.61 -7.43707 1261.25 -8.86587 1261.77C-8.13431 1262.11 -7.40275 1262.45 -6.93221 1262.07C-4.07462 1261.03 -1.52275 1261.91 1.04629 1263.4C3.61532 1264.89 6.42821 1266.49 9.33728 1267.25C12.2464 1268.01 14.5715 1269.38 15.8595 1272.36C16.069 1271.27 16.1652 1270.42 16.2614 1269.57C16.9861 1265.46 17.467 1261.23 18.4357 1257.23C18.8547 1255.05 20.1187 1252.96 21.0254 1251.01C22.4818 1247.23 23.9381 1243.46 25.6383 1239.79C29.2653 1231.98 33.5346 1229.8 41.4683 1233.78C43.1753 1234.58 45.1261 1235.48 46.9293 1235.43C48.8801 1236.33 52.0159 1236.6 54.5438 1232.43ZM84.0647 1191.82C85.1363 1191.42 86.4518 1191.14 87.3928 1190.39C88.8045 1189.27 89.8417 1187.67 90.879 1186.07C92.0296 1184.23 93.5374 1182.26 94.0699 1179.84C94.8118 1176.32 93.3143 1174.44 89.9347 1174.06C88.2449 1173.87 86.3284 1174.17 83.9242 1174.24C83.7594 1172.68 83.5945 1171.12 83.4297 1169.56C82.7704 1163.32 79.7137 1161.6 74.5033 1164.52C72.9612 1165.29 72.2468 1165.55 71.7076 1163.52C71.2989 1161.85 70.9864 1159.33 69.8805 1158.52C67.0505 1156.32 64.0899 1153.75 59.3501 1156.3C60.4321 1152.06 57.7841 1152.01 55.4932 1151.84C53.2023 1151.67 50.5714 1152.23 49.8123 1155.14C49.4895 1156.48 49.7677 1157.79 50.1763 1159.47C49.5753 1159.48 48.3732 1159.52 46.9272 1159.44C49.8535 1160.8 53.4769 1161.29 54.861 1163.42C56.2451 1165.55 55.747 1169.17 55.9634 1172.54C59.1095 1168.95 62.9768 1169.56 66.7308 1170.41C68.3073 1170.85 70.2581 1171.75 71.1373 1173.05C73.0091 1175.41 74.3932 1177.53 77.8862 1177.67C79.0883 1177.63 80.1942 1178.44 81.3001 1179.25C84.8789 1182.4 85.2429 1186.72 84.0647 1191.82ZM74.1139 1239.44C79.1833 1240.01 82.8858 1239.06 86.4578 1237.75C90.387 1236.3 90.3698 1235.7 88.1065 1232.28C86.8529 1230.51 87.8558 1227.71 89.8685 1226.57C91.7679 1225.67 93.7805 1224.52 95.4189 1222.91C98.9394 1219.79 98.7917 1218.83 96.0407 1215.18C94.6566 1213.06 91.9399 1210.61 95.7214 1208.21C96.4358 1207.95 96.611 1205.65 96.2194 1204.58C95.1754 1201.72 93.4169 1199.13 89.7935 1198.63C86.0395 1197.78 85.3937 1200.45 84.1298 1202.53C88.4401 1206.02 88.8556 1212.15 84.6379 1216.12C84.054 1216.74 83.13 1218.1 83.5044 1218.57C84.7923 1221.54 83.415 1223.87 82.151 1225.95C79.7536 1230.48 77.2257 1234.65 74.1139 1239.44ZM24.7355 1212.36C31.3985 1213.97 36.8698 1211.76 42.585 1209.67C39.1368 1206.88 40.9674 1203.57 41.4827 1200.55C40.3768 1199.74 39.5147 1199.04 38.4088 1198.23C37.059 1197.31 35.7264 1196.98 33.9576 1198.24C29.7227 1201.62 26.367 1206.29 24.7355 1212.36ZM-10.5489 1266.03C-4.08858 1273.19 3.58421 1276.45 12.7133 1275.94C12.0093 1272.35 9.79746 1270.73 6.28734 1269.99C4.10982 1269.57 1.91515 1268.55 0.191016 1267.16C-3.1439 1264.13 -6.50636 1264.35 -10.5489 1266.03ZM38.1542 1223.04C41.1662 1227.41 44.9202 1228.26 49.2409 1227.89C49.2513 1224.04 49.2617 1220.18 49.5159 1216.44C45.9611 1218.36 42.1795 1220.76 38.1542 1223.04ZM6.52554 1202.43C6.88274 1202.3 7.12659 1202.41 7.48379 1202.28C8.07805 1197.8 8.91616 1193.44 9.51043 1188.97C9.02272 1188.75 8.77887 1188.63 8.29116 1188.41C6.42615 1190.51 4.44779 1192.86 2.58278 1194.96C3.98404 1197.69 5.25479 1200.06 6.52554 1202.43Z" fill="#020202"/>
</g>
<g opacity="0.1">
<path d="M1333.39 356.638C1331.46 356.638 1329.81 356.362 1328.15 356.086C1327.05 355.811 1326.22 355.259 1325.67 354.708C1324.84 353.88 1324.84 352.777 1325.4 351.398C1326.5 349.192 1327.6 347.262 1328.98 345.332C1327.33 345.056 1326.22 344.78 1324.84 344.504C1323.74 344.228 1323.19 343.401 1323.47 342.298C1324.02 340.092 1324.29 337.886 1325.4 335.955C1325.95 335.128 1326.22 334.301 1326.78 333.474C1327.33 332.371 1327.88 331.267 1328.98 330.716C1329.81 330.164 1329.81 329.889 1328.98 329.337C1327.88 328.786 1327.05 327.958 1325.95 327.407C1325.12 326.855 1325.12 326.304 1325.4 325.476C1325.95 324.373 1326.22 322.994 1327.33 321.616C1326.22 321.616 1325.4 321.616 1324.57 321.34C1323.19 320.788 1322.64 320.513 1322.64 319.134C1322.91 316.1 1322.91 312.791 1324.02 309.758C1324.84 307.827 1325.67 305.621 1326.5 303.691C1327.6 301.761 1329.26 300.657 1330.91 299.279C1333.67 296.521 1337.25 295.142 1341.11 294.591C1343.05 294.039 1345.25 294.039 1347.46 294.591C1350.49 295.142 1353.8 295.418 1356.83 296.245C1357.94 296.521 1359.04 296.797 1360.42 297.072C1360.97 297.348 1361.25 296.797 1361.52 296.521C1362.9 293.763 1365.66 291.557 1367.59 289.075C1368.14 288.248 1368.97 287.421 1369.24 286.593C1369.79 285.215 1370.9 284.387 1371.73 283.284C1372.28 282.733 1372.83 282.181 1373.38 281.354C1373.93 280.527 1374.48 279.975 1375.31 279.423C1376.69 278.045 1378.62 277.769 1380 276.114C1382.2 273.632 1385.51 272.529 1388 270.599C1392.13 267.841 1396.54 265.084 1400.68 262.05C1402.61 260.671 1404.82 259.017 1406.75 257.638C1409.78 255.432 1413.37 254.053 1416.95 252.95C1420.26 252.123 1423.29 251.295 1426.6 250.744C1433.77 249.917 1440.39 247.435 1447.28 246.332C1451.15 245.78 1455.01 245.228 1458.59 244.953C1460.8 244.677 1463 244.125 1465.49 243.574C1466.31 243.298 1465.76 242.471 1466.31 242.195C1466.86 241.919 1467.14 243.022 1467.69 242.471C1468.24 241.644 1469.07 241.092 1469.62 240.265C1470.73 239.162 1471.55 237.783 1472.93 236.956C1474.59 236.128 1475.96 234.749 1477.07 233.371C1477.62 232.543 1478.45 231.716 1479.27 231.164C1482.58 228.958 1484.51 225.649 1486.44 222.34C1487.82 220.134 1490.03 218.755 1491.96 216.825C1492.23 216.825 1492.51 216.825 1492.79 216.825C1496.1 218.203 1499.68 218.479 1502.99 219.858C1504.64 220.685 1505.75 221.513 1506.85 223.167C1507.95 224.822 1509.33 226.201 1510.71 227.579C1513.19 229.786 1515.12 232.267 1516.78 235.025C1517.33 236.128 1518.16 236.956 1518.98 238.059C1520.09 239.989 1520.36 242.195 1520.64 244.125C1520.64 244.953 1520.09 245.78 1519.81 246.332C1519.54 247.159 1518.71 247.71 1518.43 248.538C1518.43 248.813 1518.16 248.813 1517.88 248.813C1515.95 248.813 1514.85 249.917 1513.74 251.295C1513.47 251.571 1513.47 251.571 1513.19 251.847C1509.88 253.501 1507.4 256.259 1504.37 258.465C1499.4 262.05 1494.99 266.462 1490.03 270.323C1487.27 272.529 1484.79 274.735 1482.03 276.942C1480.93 277.769 1480.1 279.423 1479.27 280.527C1477.07 284.111 1474.59 287.421 1471.83 290.178C1469.9 292.109 1467.42 293.763 1465.21 295.418C1461.9 297.624 1458.32 299.003 1454.45 299.83C1452.52 300.382 1450.87 301.209 1449.22 302.036C1446.18 303.415 1442.87 303.691 1439.56 304.518C1434.05 305.897 1428.53 307.827 1422.74 309.482C1420.81 310.033 1418.88 311.137 1417.23 312.24C1416.67 312.515 1415.85 312.791 1415.3 313.067C1412.54 313.894 1410.33 315.825 1408.13 317.479C1406.2 318.858 1404.27 320.237 1402.34 321.616C1402.06 321.891 1401.78 322.167 1401.51 322.443C1400.68 322.994 1400.13 323.546 1399.03 323.822C1397.65 324.373 1395.99 324.925 1394.89 325.752C1393.79 326.304 1392.96 326.855 1391.86 327.407C1391.58 327.407 1391.3 327.407 1391.3 327.683C1387.72 330.44 1383.03 331.819 1379.45 334.577C1378.34 335.404 1376.96 335.68 1375.86 336.507C1375.31 337.059 1374.76 337.61 1374.76 338.437C1374.76 342.574 1373.66 346.159 1372 349.744C1370.9 352.226 1369.79 354.708 1367.86 356.638C1365.93 358.844 1364 360.774 1361.25 361.877C1359.32 362.705 1357.39 364.084 1355.18 364.635C1350.77 365.738 1346.35 366.29 1341.94 365.738C1339.74 365.462 1337.81 365.187 1335.88 364.359C1334.5 363.808 1333.67 362.981 1332.57 362.153C1332.01 361.602 1332.29 360.774 1332.29 360.223C1332.57 359.12 1333.12 358.017 1333.39 356.638ZM1427.71 306.449C1427.71 306.449 1427.43 306.449 1427.43 306.724L1427.71 306.449C1430.46 306.173 1432.95 304.794 1435.43 304.242C1439.01 303.415 1442.87 302.588 1446.46 301.761C1447.56 301.485 1448.39 301.209 1449.22 300.382C1446.73 300.657 1444.25 301.209 1441.77 301.761C1437.08 302.864 1432.39 304.518 1427.71 305.897C1427.71 305.897 1427.71 306.173 1427.71 306.449ZM1392.96 307C1392.96 307 1393.23 307 1392.96 307C1392.96 306.724 1392.96 306.724 1392.96 307C1389.65 308.379 1386.62 310.585 1383.58 312.24C1381.93 313.067 1380.27 314.17 1378.62 314.997C1375.31 316.652 1372.55 318.858 1369.24 320.513C1367.31 321.34 1365.93 322.994 1363.73 323.546C1363.18 323.822 1362.9 323.546 1362.35 323.27C1360.69 322.443 1359.04 321.34 1357.39 321.064C1355.18 320.788 1353.25 320.513 1351.04 320.788C1347.73 321.064 1344.7 321.616 1341.67 322.994C1337.53 324.925 1333.95 327.683 1330.64 330.992C1329.81 331.543 1328.98 332.095 1328.43 332.922C1326.78 335.68 1325.4 338.713 1324.84 342.022C1324.84 342.574 1324.84 342.85 1325.4 342.85C1326.78 343.401 1328.15 343.677 1329.81 343.677C1330.91 343.677 1331.46 344.504 1330.64 345.332C1329.26 347.538 1327.6 349.468 1326.78 351.95C1326.22 353.329 1326.22 353.88 1327.6 354.432C1328.15 354.708 1328.71 354.983 1329.26 354.983C1330.91 355.259 1332.57 355.259 1334.22 355.259C1335.32 355.259 1335.6 355.811 1335.05 356.638C1334.22 357.741 1334.22 359.12 1333.67 360.499C1333.39 360.774 1333.67 361.326 1333.95 361.602C1334.77 362.153 1335.6 362.705 1336.43 362.981C1337.53 363.532 1338.91 363.532 1340.01 363.808C1343.87 364.635 1347.46 364.359 1351.32 363.808C1355.18 363.256 1358.21 361.326 1361.52 359.671C1362.35 359.12 1363.18 358.844 1364 358.017C1366.49 355.535 1368.69 352.777 1370.07 349.468C1371.73 345.883 1373.1 342.022 1373.1 338.162C1373.1 337.61 1373.1 337.334 1372.55 337.059C1372.28 337.059 1372 336.783 1372 336.507C1372 335.955 1372.28 335.955 1372.55 335.68C1373.38 335.404 1374.21 335.128 1374.76 334.852C1377.52 333.198 1380 331.543 1383.03 330.164C1386.06 328.51 1389.1 326.855 1392.13 325.201C1394.89 323.822 1397.37 322.443 1399.85 320.788C1401.23 319.961 1402.61 318.582 1404.54 317.479C1403.99 317.479 1403.71 317.479 1403.71 317.479C1399.85 318.858 1395.99 318.582 1392.13 318.306C1390.2 318.031 1388.82 316.652 1388.82 314.722C1388.82 313.343 1389.37 311.964 1390.2 310.861C1391.3 309.482 1392.41 308.379 1392.96 307ZM1509.88 251.847V252.123C1509.88 252.123 1510.16 252.123 1509.88 251.847C1510.44 251.847 1510.99 251.847 1510.71 251.295C1510.16 250.192 1510.71 250.468 1511.26 250.468C1512.09 250.468 1512.64 250.468 1512.09 249.365V249.089C1512.92 247.986 1512.92 246.883 1512.92 245.78C1513.19 244.677 1513.19 243.85 1513.47 242.747C1513.47 242.195 1513.74 241.644 1514.3 241.919C1515.12 241.919 1514.85 242.471 1514.85 243.022C1514.85 243.574 1514.85 243.85 1514.57 244.401C1514.3 245.504 1514.02 246.883 1514.02 248.262C1514.85 247.435 1515.95 247.159 1515.95 246.056C1515.95 244.677 1516.5 243.574 1516.5 242.195C1516.5 241.644 1516.78 241.092 1517.61 241.368C1518.71 241.368 1518.43 241.919 1518.43 242.195C1518.16 243.298 1518.16 244.401 1517.88 245.504C1519.54 244.953 1519.54 244.125 1519.26 242.195C1518.71 239.162 1517.05 236.956 1515.4 234.749C1514.57 233.646 1514.02 232.267 1513.19 231.44C1510.99 229.234 1508.5 227.028 1506.57 224.546C1504.92 222.616 1503.27 221.237 1501.06 220.685C1498.85 219.858 1496.37 219.582 1494.17 218.755C1493.06 218.479 1492.51 218.755 1492.23 219.582C1491.96 220.41 1491.68 220.685 1491.13 220.961C1490.03 221.513 1489.48 222.34 1488.65 223.443C1486.72 226.476 1484.51 229.51 1482.31 232.267C1480.38 234.474 1478.17 236.404 1475.96 238.059C1474.31 239.162 1472.66 240.54 1471.28 241.919L1471 242.195C1470.45 243.574 1469.35 244.125 1468.24 244.953C1466.59 246.056 1464.66 246.056 1463 246.332C1459.14 247.159 1455.28 247.986 1451.42 248.262C1447.84 248.538 1444.53 249.089 1441.22 250.192C1439.01 251.02 1436.53 251.571 1434.32 251.571C1432.12 251.571 1430.19 252.123 1427.98 252.398C1426.6 252.674 1425.22 252.95 1423.84 253.226C1421.64 253.501 1419.16 253.777 1417.23 255.156C1415.02 256.535 1412.54 256.811 1410.33 258.741C1408.68 260.12 1406.75 261.499 1404.54 262.602C1403.99 262.878 1403.71 263.153 1403.16 263.429C1402.34 264.532 1401.23 265.084 1399.85 265.635C1398.2 266.187 1397.1 267.29 1395.99 268.393C1395.72 268.669 1395.72 268.944 1395.17 268.944C1392.13 270.599 1389.65 272.805 1386.62 274.184C1383.86 275.563 1381.93 277.769 1379.17 279.423C1377.52 280.251 1376.69 281.905 1375.31 283.008C1374.48 283.56 1373.93 284.111 1373.66 284.939C1372.55 287.421 1370.35 289.075 1368.42 291.006C1367.04 292.66 1365.11 294.315 1363.73 296.521C1371.73 294.315 1379.72 293.212 1386.06 287.972C1386.06 287.972 1385.79 287.696 1385.51 287.696C1385.24 287.421 1384.96 287.145 1385.24 286.593C1385.51 286.318 1385.79 286.318 1386.34 286.593C1386.62 286.593 1386.89 286.869 1386.89 286.869C1387.72 287.972 1389.1 287.696 1389.93 287.145C1393.79 285.215 1398.2 284.111 1402.06 281.905C1403.16 281.354 1403.44 281.078 1402.34 280.251C1401.78 279.975 1400.96 279.699 1401.51 278.872C1402.06 278.045 1402.61 278.872 1403.44 278.872C1403.71 278.872 1403.71 278.872 1403.99 279.148C1404.82 279.699 1405.64 279.699 1406.47 279.699C1408.68 279.699 1410.88 278.872 1412.81 277.769C1415.3 276.666 1417.78 275.287 1420.54 275.011C1419.71 274.735 1419.43 273.908 1418.61 273.632C1418.33 273.632 1417.78 273.357 1417.78 272.805C1418.05 272.254 1418.61 272.254 1419.16 272.529C1421.64 273.632 1423.57 275.287 1424.67 277.769C1424.95 278.596 1424.95 279.148 1424.95 279.975C1424.4 281.63 1423.84 283.56 1423.02 285.215C1422.74 285.766 1422.47 286.042 1422.19 286.318C1420.26 287.972 1417.78 288.8 1416.12 291.006C1416.12 291.281 1415.85 291.281 1415.57 291.281C1411.99 293.763 1408.95 296.797 1405.37 299.003C1403.44 300.106 1401.78 301.761 1399.85 302.864C1397.92 303.967 1396.54 305.345 1395.44 307C1395.44 307 1395.17 307.276 1395.44 307.276C1395.44 307.552 1395.72 307.276 1395.72 307.276C1397.1 305.897 1398.75 305.621 1400.68 305.07C1401.23 304.794 1401.78 304.794 1402.34 305.07C1404.82 306.449 1406.75 308.379 1407.3 311.412C1407.57 312.24 1407.3 312.791 1406.47 313.343C1405.92 313.618 1405.64 313.894 1405.09 314.17C1402.89 315.549 1400.68 316.652 1398.2 317.479C1400.68 317.479 1403.16 316.652 1405.64 316.1C1408.95 315.273 1411.99 313.067 1415.3 311.964C1416.4 311.412 1417.78 310.861 1418.88 310.033C1422.19 308.103 1424.95 305.621 1429.08 304.794C1432.12 304.242 1435.15 302.864 1438.18 302.036C1442.05 300.933 1445.91 299.83 1450.04 299.279C1453.08 299.003 1455.83 299.003 1458.87 297.9C1463.83 295.969 1467.97 293.212 1471.83 289.627C1475.69 286.042 1478.17 281.63 1481.2 277.217C1482.03 276.114 1482.31 274.184 1484.24 274.46L1484.51 274.184C1485.06 271.978 1485.34 269.772 1486.17 267.566C1486.17 267.29 1485.89 266.738 1486.44 266.738C1487 266.738 1487 267.29 1487 267.566C1487 269.22 1486.44 270.875 1486.17 272.529C1487.27 271.702 1488.1 271.15 1488.37 269.496C1488.37 267.29 1488.93 265.084 1488.93 262.878C1488.93 262.326 1489.2 262.05 1489.75 262.05C1490.3 262.05 1490.58 262.602 1490.58 263.153C1490.3 265.359 1490.3 267.566 1489.75 269.772V270.047H1490.03C1490.86 269.22 1492.23 268.669 1492.23 267.29C1492.51 265.084 1492.79 262.602 1493.34 260.396C1493.34 259.844 1493.61 259.568 1493.89 259.293C1494.17 259.293 1494.44 259.293 1494.72 259.568C1494.99 260.12 1494.99 260.396 1494.72 260.947C1494.17 262.878 1493.89 264.808 1493.61 266.738C1493.61 266.738 1493.89 266.738 1493.89 267.014C1494.72 266.462 1495.54 265.911 1495.82 264.532C1496.1 261.774 1496.65 259.017 1497.47 256.259C1497.47 255.708 1497.75 255.156 1498.3 255.432C1498.85 255.432 1498.85 255.983 1498.58 256.535C1498.3 256.811 1498.3 257.362 1498.3 257.638C1498.03 259.568 1497.47 261.774 1497.2 263.981C1498.3 263.429 1499.13 262.602 1499.68 261.774C1499.96 261.499 1500.51 261.223 1500.51 260.396C1500.78 259.293 1500.78 258.189 1501.06 257.086C1501.34 255.432 1501.61 253.501 1501.89 251.847C1501.89 251.295 1502.16 250.744 1502.71 251.02C1503.27 251.295 1503.27 251.847 1503.27 252.123C1502.44 254.329 1502.44 256.811 1501.89 259.293C1501.61 259.568 1501.61 259.568 1501.89 259.844C1501.89 260.12 1502.16 259.844 1502.16 259.568C1502.71 259.293 1503.27 258.741 1503.82 258.465C1504.92 257.914 1505.47 256.811 1505.47 255.708C1505.47 254.605 1505.75 253.226 1506.02 252.123C1506.3 251.295 1506.57 250.744 1506.3 249.917C1506.3 249.089 1506.3 248.538 1506.85 247.986C1507.13 247.71 1507.4 247.71 1507.4 247.986C1507.95 248.538 1507.95 249.365 1507.68 249.917C1507.4 251.847 1507.13 253.501 1506.57 255.432C1506.57 255.708 1506.3 255.708 1506.57 255.983H1506.85C1507.4 255.432 1507.95 255.156 1508.78 254.605C1509.06 254.329 1509.33 254.329 1509.33 253.777C1509.61 251.295 1509.88 248.538 1510.44 246.056C1510.44 245.504 1510.71 244.953 1511.26 244.953C1511.81 244.953 1511.81 245.78 1511.81 246.332C1510.99 247.71 1510.44 249.641 1509.88 251.847ZM1344.15 295.694C1341.11 295.418 1338.36 296.245 1335.88 297.624C1333.12 299.003 1330.91 301.209 1328.71 303.139L1328.43 303.415C1325.95 307.552 1324.29 311.964 1324.29 316.928C1324.29 319.961 1324.29 319.961 1327.05 319.961C1328.71 319.961 1329.26 321.064 1328.43 322.443C1327.88 323.27 1327.6 324.373 1327.05 325.201C1326.78 325.752 1327.05 325.752 1327.33 326.304C1328.15 327.407 1329.81 327.683 1330.91 328.51C1331.19 328.786 1331.46 328.51 1331.46 328.234C1333.95 325.201 1337.53 323.27 1341.11 321.616C1346.91 319.134 1352.7 318.582 1359.04 319.685C1360.14 319.961 1361.8 319.685 1362.62 320.513C1363.73 321.34 1363.73 320.788 1364.28 319.961C1364.56 319.685 1364.56 319.41 1364.56 318.858C1364.56 316.652 1366.21 315.549 1367.86 314.722C1371.17 313.067 1374.48 311.688 1377.79 310.309C1380.83 309.206 1384.13 308.379 1386.89 306.724C1388 305.897 1388.82 305.07 1390.2 304.518C1392.96 303.415 1395.44 302.312 1397.92 300.933C1402.06 298.727 1405.92 295.969 1409.78 293.212C1411.44 291.833 1412.54 289.903 1414.47 289.075C1416.12 288.248 1417.23 286.869 1418.88 286.042C1420.26 285.49 1421.64 284.387 1422.19 282.733C1422.47 281.905 1423.02 280.802 1423.29 279.975C1423.84 278.596 1423.29 276.39 1422.19 275.287C1422.19 275.287 1421.91 275.011 1421.64 275.011C1419.71 275.287 1417.78 275.839 1416.4 276.942C1414.47 278.32 1412.54 279.423 1410.33 280.527C1406.75 282.457 1402.89 283.836 1399.03 284.939C1395.72 286.042 1392.68 287.696 1389.37 288.524C1386.89 289.351 1384.41 290.454 1382.2 291.557C1380 292.66 1378.07 293.488 1375.86 294.039C1372.28 294.866 1368.97 295.969 1365.38 297.072C1364.56 297.348 1364 297.624 1363.18 297.9C1361.8 299.003 1360.69 299.003 1359.32 297.624L1359.04 297.348C1354.08 297.072 1349.11 296.245 1344.15 295.694ZM1393.51 317.203C1394.34 317.755 1394.34 316.652 1394.89 316.376C1398.47 315.549 1401.51 313.894 1404.54 311.964C1404.82 311.688 1405.09 311.412 1404.82 310.861C1404.54 308.93 1403.16 307.552 1401.78 306.449C1400.96 305.621 1399.58 305.345 1398.75 305.897C1397.37 307 1395.99 308.103 1394.34 309.206C1392.96 310.309 1392.13 311.964 1390.75 312.791C1390.2 313.343 1389.93 314.446 1390.2 315.273C1390.48 316.1 1391.03 316.652 1391.58 316.652C1392.13 316.928 1392.68 316.928 1393.51 317.203ZM1366.76 319.685C1368.97 317.479 1371.45 316.652 1373.66 315.273C1373.38 315.273 1373.38 315.273 1373.1 315.273C1370.9 315.825 1369.24 317.479 1367.04 318.031C1366.49 318.306 1366.76 318.858 1366.76 319.685ZM1378.62 312.515C1377.52 312.791 1376.69 313.067 1376.14 314.17C1376.96 313.618 1377.79 313.343 1378.62 312.515ZM1492.51 266.738C1492.51 266.462 1492.51 266.462 1492.51 266.738C1492.51 266.462 1492.51 266.738 1492.51 266.738ZM1374.21 315.273C1374.21 315.273 1374.21 314.997 1374.21 315.273C1373.93 314.997 1373.93 315.273 1374.21 315.273C1373.93 315.273 1373.93 315.273 1374.21 315.273Z" fill="#0A0A0A"/>
<path d="M1437.33 37.2925C1437.33 37.5683 1437.06 37.5683 1437.06 37.5683C1437.06 37.2925 1437.06 37.2925 1437.06 37.0167C1437.33 37.0167 1437.33 37.0167 1437.33 37.2925Z" fill="#FDFDFD"/>
<path d="M1424.93 47.7716C1424.65 47.7716 1424.65 48.0474 1424.93 47.7716C1424.65 47.7716 1424.65 47.7716 1424.65 47.4958C1424.65 47.7716 1424.65 47.7716 1424.93 47.7716Z" fill="#FDFDFD"/>
<path d="M1331.17 84.7242C1331.17 84.7242 1330.89 85 1330.89 84.7242C1330.89 84.7242 1330.89 84.7242 1331.17 84.7242Z" fill="#FDFDFD"/>
<path d="M1328.68 84.7242H1328.96C1329.23 85 1328.96 85 1328.68 84.7242C1328.96 85 1328.96 84.7242 1328.68 84.7242Z" fill="#FDFDFD"/>
<path d="M1310.21 93.2732C1309.93 93.2732 1309.93 93.2732 1310.21 93.2732C1309.93 93.2732 1309.93 92.9974 1310.21 93.2732C1310.21 92.9974 1310.21 93.2732 1310.21 93.2732Z" fill="#FDFDFD"/>
</g>
</svg>
